<svg width="16" height="19" viewBox="0 0 16 19" fill="none" xmlns="http://www.w3.org/2000/svg">
<path d="M15.8197 11.9849L14.1538 10.2114V7.86195C14.1519 6.23835 13.5846 4.67318 12.5616 3.46907C11.5386 2.26497 10.1326 1.50749 8.61539 1.34308V0H7.38462V1.34308C5.86743 1.50749 4.46139 2.26497 3.43838 3.46907C2.41537 4.67318 1.84806 6.23835 1.84615 7.86195V10.2114L0.180308 11.9849C0.0648927 12.1077 3.48538e-05 12.2743 0 12.4481V14.4136C0 14.5873 0.0648349 14.754 0.180242 14.8768C0.295649 14.9997 0.452174 15.0687 0.615385 15.0687H4.92308V15.5778C4.90969 16.409 5.18486 17.2162 5.69587 17.8447C6.20687 18.4732 6.91776 18.8789 7.69231 18.984C8.12011 19.0292 8.55206 18.9785 8.96036 18.8353C9.36867 18.692 9.7443 18.4594 10.0631 18.1523C10.3819 17.8453 10.6368 17.4706 10.8114 17.0523C10.986 16.6341 11.0764 16.1816 11.0769 15.7239V15.0687H15.3846C15.5478 15.0687 15.7044 14.9997 15.8198 14.8768C15.9352 14.754 16 14.5873 16 14.4136V12.4481C16 12.2743 15.9351 12.1077 15.8197 11.9849ZM9.84615 15.7239C9.84615 16.2452 9.65165 16.7451 9.30543 17.1137C8.95921 17.4823 8.48963 17.6894 8 17.6894C7.51037 17.6894 7.04079 17.4823 6.69457 17.1137C6.34835 16.7451 6.15385 16.2452 6.15385 15.7239V15.0687H9.84615V15.7239ZM14.7692 13.7584H1.23077V12.7193L2.89662 10.9458C3.01203 10.823 3.07689 10.6563 3.07692 10.4826V7.86195C3.07692 6.47187 3.5956 5.13873 4.51886 4.15579C5.44212 3.17286 6.69432 2.62065 8 2.62065C9.30568 2.62065 10.5579 3.17286 11.4811 4.15579C12.4044 5.13873 12.9231 6.47187 12.9231 7.86195V10.4826C12.9231 10.6563 12.988 10.823 13.1034 10.9458L14.7692 12.7193V13.7584Z" fill="#030F36"/>
</svg>
