<svg width="48" height="66" viewBox="0 0 48 66" fill="none" xmlns="http://www.w3.org/2000/svg">
<path d="M21.5275 57.7009C19.4838 55.6509 19.4838 52.3243 21.5275 50.2763L23.2841 48.5198C23.477 48.3269 23.5042 48.1068 23.5042 47.9873C23.5042 47.872 23.4749 47.652 23.2841 47.4591L21.5275 45.7025C19.4838 43.6525 19.4838 40.3259 21.5275 38.2779L23.2841 36.5214C23.477 36.3285 23.5042 36.1084 23.5042 35.9889C23.5042 35.8736 23.4749 35.6536 23.2841 35.4607L21.5275 33.7041C19.4838 31.6541 19.4838 28.3275 21.5275 26.2795L23.2841 24.5229C23.477 24.3301 23.5042 24.11 23.5042 23.9905C23.5042 23.8752 23.4749 23.6551 23.2841 23.4623L21.5275 21.7057C19.4838 19.6557 19.4838 16.3291 21.5275 14.2811L23.2841 12.5245C23.477 12.3317 23.5042 12.1116 23.5042 11.9921C23.5042 11.8768 23.4749 11.6567 23.2841 11.4639L21.5275 9.7073C20.5382 8.71373 19.9911 7.39944 19.9911 5.99292C19.9911 4.59059 20.5381 3.2721 21.5317 2.28272L22.083 1.73143C22.7643 1.05018 23.5126 0.473736 24.3008 0.00419641C24.2001 4.09415e-06 24.0995 0 23.9989 0C10.747 0 0 21.7581 0 37.4961C0 48.8426 5.58626 58.6442 13.6753 63.2285L13.6795 63.2138C16.2767 64.6916 19.5886 64.2263 21.7288 62.0819L23.2883 60.5265C23.5755 60.2331 23.5755 59.7594 23.2883 59.4659L21.5275 57.7009Z" fill="white"/>
<path d="M34.4588 4.5873C34.3812 4.51603 34.2995 4.44896 34.224 4.38188C31.608 2.23123 27.7343 2.44294 25.2629 4.91012L24.7117 5.4614C24.5251 5.65424 24.4957 5.87435 24.4957 5.98963C24.4957 6.10911 24.5251 6.3313 24.7117 6.52205L26.4682 8.27863C27.4618 9.27221 28.0089 10.5865 28.0089 11.9888C28.0089 13.3954 27.4618 14.7097 26.4682 15.7032L24.7117 17.4598C24.4182 17.7533 24.4182 18.227 24.7117 18.5205L26.4682 20.2771C27.4618 21.2706 28.0089 22.5849 28.0089 23.9872C28.0089 25.3938 27.4618 26.7081 26.4682 27.7016L24.7117 29.4582C24.4182 29.7517 24.4182 30.2254 24.7117 30.5189L26.4682 32.2755C27.4618 33.269 28.0089 34.5833 28.0089 35.9857C28.0089 37.3922 27.4618 38.7065 26.4682 39.7L24.7117 41.4566C24.4182 41.7501 24.4182 42.2238 24.7117 42.5173L26.4682 44.2739C27.4618 45.2674 28.0089 46.5817 28.0089 47.9841C28.0089 49.3906 27.4618 50.7049 26.4682 51.6984L24.7117 53.455C24.4182 53.7485 24.4182 54.2222 24.7117 54.5157L26.4682 56.2723C28.5183 58.3223 28.5183 61.6489 26.4724 63.6969L24.9171 65.2522C24.653 65.5121 24.3846 65.7616 24.1017 65.9859C37.3117 65.9188 48 53.1846 48 37.4844C47.9979 26.2008 42.4745 11.8211 34.4588 4.5873Z" fill="white"/>
</svg>
