<svg width="24" height="130" viewBox="0 0 24 130" fill="none" xmlns="http://www.w3.org/2000/svg">
<rect width="24" height="24" rx="5" fill="#DDE1E7" fill-opacity="0.2"/>
<path d="M8.81818 12L10.7273 13.9091L15.1818 9.45455M17.0909 13.9091C16.4545 14.5455 17.8864 16.2955 17.0909 17.0909C16.2955 17.8864 14.5455 16.4545 13.9091 17.0909C13.2727 17.7273 12.9545 19 12 19C11.0455 19 10.7273 17.7273 10.0909 17.0909C9.45455 16.4545 7.70455 17.8864 6.90909 17.0909C6.11364 16.2955 7.54545 14.5455 6.90909 13.9091C6.27273 13.2727 5 12.9545 5 12C5 11.0455 6.27273 10.7273 6.90909 10.0909C7.54545 9.45455 6.11364 7.70455 6.90909 6.90909C7.70455 6.11364 9.45455 7.54545 10.0909 6.90909C10.7273 6.27273 11.0455 5 12 5C12.9545 5 13.2727 6.27273 13.9091 6.90909C14.5455 7.54545 16.2955 6.11364 17.0909 6.90909C17.8864 7.70455 16.4545 9.45455 17.0909 10.0909C17.7273 10.7273 19 11.0455 19 12C19 12.9545 17.7273 13.2727 17.0909 13.9091Z" stroke="black" stroke-width="2"/>
<path d="M5.90825 64.1669C5.86023 64.1154 5.80232 64.0741 5.73798 64.0454C5.67364 64.0167 5.60419 64.0013 5.53376 64.0001C5.46334 63.9988 5.39338 64.0118 5.32807 64.0382C5.26276 64.0645 5.20343 64.1038 5.15363 64.1536C5.10382 64.2034 5.06455 64.2627 5.03817 64.328C5.01179 64.3933 4.99884 64.4633 5.00008 64.5337C5.00132 64.6041 5.01674 64.6736 5.04541 64.7379C5.07407 64.8022 5.11541 64.8601 5.16694 64.9081L5.65788 65.399C5.24378 65.823 5.0123 66.3923 5.01308 66.985V72.9287C5.01308 73.5315 5.25255 74.1095 5.67879 74.5357C6.10504 74.9619 6.68315 75.2014 7.28596 75.2014H7.81047V77.1243C7.81047 77.8446 8.6329 78.2558 9.20916 77.8236L12.7059 75.2014H15.4606L18.1041 77.8446C18.203 77.9402 18.3355 77.9931 18.473 77.992C18.6105 77.9908 18.7421 77.9357 18.8394 77.8386C18.9367 77.7414 18.9919 77.6098 18.9932 77.4723C18.9944 77.3348 18.9416 77.2023 18.8461 77.1034L5.90825 64.1669ZM19 72.9287C19.0002 73.2958 18.9113 73.6574 18.741 73.9826C18.5707 74.3078 18.3241 74.5868 18.0223 74.7958L7.93775 64.7123H16.7271C17.0256 64.7123 17.3212 64.7711 17.5969 64.8853C17.8727 64.9996 18.1232 65.167 18.3343 65.378C18.5453 65.589 18.7128 65.8395 18.827 66.1153C18.9412 66.391 19 66.6865 19 66.985V72.9287Z" fill="black"/>
<rect y="106" width="24" height="24" rx="12" fill="#FBFBFF"/>
<path d="M11.5962 114.679V114.893H13.9038V114.679C13.9038 114.394 13.7823 114.122 13.5659 113.921C13.3495 113.72 13.056 113.607 12.75 113.607C12.444 113.607 12.1505 113.72 11.9341 113.921C11.7177 114.122 11.5962 114.394 11.5962 114.679ZM10.6731 114.893V114.679C10.6731 114.167 10.8919 113.677 11.2814 113.315C11.6709 112.953 12.1992 112.75 12.75 112.75C13.3008 112.75 13.8291 112.953 14.2186 113.315C14.6081 113.677 14.8269 114.167 14.8269 114.679V114.893H18.2885C18.4109 114.893 18.5283 114.938 18.6148 115.018C18.7014 115.099 18.75 115.208 18.75 115.321C18.75 115.435 18.7014 115.544 18.6148 115.624C18.5283 115.705 18.4109 115.75 18.2885 115.75H17.5925L16.7192 122.851C16.6548 123.374 16.3854 123.856 15.9624 124.206C15.5393 124.557 14.9922 124.75 14.4254 124.75H11.0746C10.5078 124.75 9.96068 124.557 9.53762 124.206C9.11457 123.856 8.84516 123.374 8.78077 122.851L7.90754 115.75H7.21154C7.08913 115.75 6.97174 115.705 6.88518 115.624C6.79863 115.544 6.75 115.435 6.75 115.321C6.75 115.208 6.79863 115.099 6.88518 115.018C6.97174 114.938 7.08913 114.893 7.21154 114.893H10.6731ZM11.8269 117.679C11.8269 117.565 11.7783 117.456 11.6917 117.376C11.6052 117.295 11.4878 117.25 11.3654 117.25C11.243 117.25 11.1256 117.295 11.039 117.376C10.9525 117.456 10.9038 117.565 10.9038 117.679V121.964C10.9038 122.078 10.9525 122.187 11.039 122.267C11.1256 122.348 11.243 122.393 11.3654 122.393C11.4878 122.393 11.6052 122.348 11.6917 122.267C11.7783 122.187 11.8269 122.078 11.8269 121.964V117.679ZM14.1346 117.25C14.0122 117.25 13.8948 117.295 13.8083 117.376C13.7217 117.456 13.6731 117.565 13.6731 117.679V121.964C13.6731 122.078 13.7217 122.187 13.8083 122.267C13.8948 122.348 14.0122 122.393 14.1346 122.393C14.257 122.393 14.3744 122.348 14.461 122.267C14.5475 122.187 14.5962 122.078 14.5962 121.964V117.679C14.5962 117.565 14.5475 117.456 14.461 117.376C14.3744 117.295 14.257 117.25 14.1346 117.25Z" fill="black"/>
</svg>
