<svg width="24" height="24" viewBox="0 0 24 24" fill="none" xmlns="http://www.w3.org/2000/svg">
<path d="M6.87999 14.88C8.47056 14.88 9.75997 13.5906 9.75997 11.9999C9.75997 10.4093 8.47056 9.11987 6.87999 9.11987C5.28941 9.11987 4 10.4093 4 11.9999C4 13.5906 5.28941 14.88 6.87999 14.88Z" stroke="#75818F" stroke-width="1.5" stroke-linecap="round" stroke-linejoin="round"/>
<path d="M17.12 20C18.7106 20 20 18.7106 20 17.1199C20 15.5293 18.7106 14.2399 17.12 14.2399C15.5294 14.2399 14.24 15.5293 14.24 17.1199C14.24 18.7106 15.5294 20 17.12 20Z" stroke="#75818F" stroke-width="1.5" stroke-linecap="round" stroke-linejoin="round"/>
<path d="M17.12 9.76015C18.7106 9.76015 20 8.4707 20 6.88008C20 5.28945 18.7106 4 17.12 4C15.5294 4 14.24 5.28945 14.24 6.88008C14.24 8.4707 15.5294 9.76015 17.12 9.76015Z" stroke="#75818F" stroke-width="1.5" stroke-linecap="round" stroke-linejoin="round"/>
<path d="M9.43994 13.2804L14.5599 15.8405M9.43994 10.7203L14.5599 8.16028" stroke="#75818F" stroke-width="1.5" stroke-linecap="round" stroke-linejoin="round"/>
</svg>
