<svg width="19" height="17" viewBox="0 0 19 17" fill="none" xmlns="http://www.w3.org/2000/svg">
<g clip-path="url(#clip0_0_6747)">
<path d="M1.26812 8.07079V14.1543H4.09382L4.2365 14.1696C6.85983 14.7272 8.59815 15.1292 9.46451 15.3783C10.6153 15.7089 11.0443 15.7897 11.8249 15.8373C12.4086 15.8738 13.0717 15.669 13.3739 15.3885C13.5408 15.2338 13.6658 14.9159 13.7152 14.4229C13.7254 14.3195 13.766 14.2205 13.8326 14.1363C13.8992 14.0521 13.9894 13.9858 14.0938 13.9443C14.326 13.8525 14.5191 13.7029 14.6804 13.4853C14.8296 13.2864 14.9266 12.9158 14.9443 12.3794C14.9474 12.2808 14.9781 12.1846 15.0334 12.0998C15.0887 12.015 15.1669 11.9445 15.2605 11.8949C15.8032 11.6085 16.0718 11.2855 16.1278 10.9064C16.1893 10.4873 16.0401 10.0156 15.6493 9.47839C15.5577 9.3524 15.5235 9.19879 15.5542 9.05021C15.5848 8.90163 15.6778 8.76982 15.8135 8.68279C16.1874 8.44309 16.3926 8.10989 16.4439 7.63728C16.526 6.88418 15.9991 6.32743 14.8063 6.21608C13.744 6.12032 12.6714 6.20183 11.6411 6.45663C11.5243 6.48447 11.4011 6.4813 11.2861 6.44751C11.1712 6.41371 11.0692 6.3507 10.9922 6.26587C10.9152 6.18104 10.8664 6.07793 10.8515 5.96867C10.8366 5.85942 10.8562 5.74855 10.9081 5.64913C11.3744 4.74983 11.6337 4.00778 11.6943 3.43317C11.7736 2.67072 11.5805 2.11822 11.1292 1.66262C10.7869 1.31752 10.2395 1.12032 10.0343 1.16112C9.76387 1.21382 9.58761 1.35662 9.3582 1.85642C9.22298 2.15222 9.15769 2.40382 9.04579 2.99117C8.93854 3.54877 8.87979 3.80038 8.75762 4.13018C8.38925 5.12978 7.48559 6.16593 6.27231 6.88078C5.42199 7.38119 4.50042 7.77301 3.53334 8.04529C3.47292 8.06226 3.41005 8.07086 3.34683 8.07079H1.26812ZM1.22895 15.3128C0.927731 15.3205 0.657284 15.2593 0.430669 15.1148C0.141571 14.9303 0.00541542 14.6396 0.0026177 14.3047L0.00541542 8.08014C-0.0262921 7.74863 0.0809539 7.44433 0.334614 7.21823C0.57242 7.00573 0.882967 6.90543 1.21123 6.91223H3.24891C4.07317 6.67285 4.85901 6.33501 5.58594 5.90753C6.56327 5.33123 7.28322 4.50503 7.55833 3.76043C7.65252 3.50372 7.70288 3.29122 7.798 2.79142C7.9267 2.12077 8.0069 1.80882 8.19155 1.40762C8.5739 0.572917 9.07563 0.164916 9.7676 0.0280657C10.4484 -0.106235 11.4397 0.251616 12.0664 0.884018C12.7612 1.58442 13.068 2.46077 12.9542 3.54367C12.9057 4.00948 12.764 4.53053 12.5308 5.11108C13.327 5.00532 14.1345 4.98933 14.935 5.06348C16.8067 5.23773 17.8577 6.34868 17.7047 7.75289C17.6376 8.35809 17.397 8.87234 16.9876 9.27609C17.3317 9.88044 17.4688 10.478 17.383 11.0611C17.2841 11.7326 16.8738 12.2919 16.1912 12.7262C16.138 13.3153 15.9897 13.7854 15.7267 14.1373C15.5195 14.4216 15.2492 14.6631 14.9331 14.8462C14.8324 15.4276 14.6207 15.8823 14.2747 16.2019C13.7012 16.734 12.6763 17.0511 11.74 16.9933C10.8512 16.9389 10.3253 16.8403 9.08495 16.4833C8.26709 16.2478 6.57353 15.8568 4.02108 15.3128H1.22802H1.22895ZM2.81526 7.80643C2.81501 7.73039 2.83124 7.65504 2.863 7.58472C2.89475 7.5144 2.94143 7.45048 3.00034 7.39663C3.05925 7.34277 3.12924 7.30005 3.2063 7.27089C3.28336 7.24174 3.36598 7.22673 3.44941 7.22673C3.53269 7.22696 3.6151 7.24213 3.69195 7.27138C3.76879 7.30063 3.83856 7.3434 3.89728 7.39723C3.95599 7.45106 4.0025 7.5149 4.03414 7.58511C4.06578 7.65533 4.08194 7.73053 4.0817 7.80643V14.3328C4.08182 14.4087 4.06554 14.4838 4.03378 14.554C4.00202 14.6242 3.95542 14.688 3.89662 14.7417C3.83782 14.7955 3.76798 14.8381 3.69109 14.8673C3.61419 14.8964 3.53176 14.9115 3.44848 14.9116C3.3652 14.9115 3.28276 14.8964 3.20587 14.8673C3.12898 14.8381 3.05914 14.7955 3.00034 14.7417C2.94154 14.688 2.89493 14.6242 2.86317 14.554C2.83142 14.4838 2.81514 14.4087 2.81526 14.3328V7.80643Z" fill="#75818F"/>
</g>
<defs>
<clipPath id="clip0_0_6747">
<rect width="18.2857" height="16.6667" fill="white" transform="scale(1.02)"/>
</clipPath>
</defs>
</svg>
