<svg width="168" height="184" viewBox="0 0 168 184" fill="none" xmlns="http://www.w3.org/2000/svg">
<g filter="url(#filter0_d_9007_54261)">
<mask id="path-1-inside-1_9007_54261" fill="white">
<path fill-rule="evenodd" clip-rule="evenodd" d="M151.366 0.5C150.981 -0.166666 150.019 -0.166667 149.634 0.5L144.727 9H10C4.47715 9 0 13.4772 0 19V174C0 179.523 4.47715 184 10 184H158C163.523 184 168 179.523 168 174V19C168 13.4772 163.523 9 158 9H156.273L151.366 0.5Z"/>
</mask>
<path fill-rule="evenodd" clip-rule="evenodd" d="M151.366 0.5C150.981 -0.166666 150.019 -0.166667 149.634 0.5L144.727 9H10C4.47715 9 0 13.4772 0 19V174C0 179.523 4.47715 184 10 184H158C163.523 184 168 179.523 168 174V19C168 13.4772 163.523 9 158 9H156.273L151.366 0.5Z" fill="white"/>
<path d="M149.634 0.5L148.768 -3.07486e-06V1.65609e-07L149.634 0.5ZM151.366 0.5L152.232 8.77817e-07V-2.33819e-06L151.366 0.5ZM144.727 9V10H145.304L145.593 9.5L144.727 9ZM156.273 9L155.407 9.5L155.696 10H156.273V9ZM150.5 1V1L152.232 -2.33819e-06C151.462 -1.33333 149.538 -1.33333 148.768 -3.07486e-06L150.5 1ZM145.593 9.5L150.5 0.999999L148.768 1.65609e-07L143.86 8.5L145.593 9.5ZM10 10H144.727V8H10V10ZM1 19C1 14.0294 5.02944 10 10 10V8C3.92487 8 -1 12.9249 -1 19H1ZM1 174V19H-1V174H1ZM10 183C5.02944 183 1 178.971 1 174H-1C-1 180.075 3.92487 185 10 185V183ZM158 183H10V185H158V183ZM167 174C167 178.971 162.971 183 158 183V185C164.075 185 169 180.075 169 174H167ZM167 19V174H169V19H167ZM158 10C162.971 10 167 14.0294 167 19H169C169 12.9249 164.075 8 158 8V10ZM156.273 10H158V8H156.273V10ZM150.5 1L155.407 9.5L157.14 8.5L152.232 8.77796e-07L150.5 1Z" fill="#F8F9FF" mask="url(#path-1-inside-1_9007_54261)"/>
</g>
<defs>
<filter id="filter0_d_9007_54261" x="-12" y="-7" width="192" height="208" filterUnits="userSpaceOnUse" color-interpolation-filters="sRGB">
<feFlood flood-opacity="0" result="BackgroundImageFix"/>
<feColorMatrix in="SourceAlpha" type="matrix" values="0 0 0 0 0 0 0 0 0 0 0 0 0 0 0 0 0 0 127 0" result="hardAlpha"/>
<feOffset dy="5"/>
<feGaussianBlur stdDeviation="6"/>
<feColorMatrix type="matrix" values="0 0 0 0 0.193663 0 0 0 0 0.253807 0 0 0 0 0.404167 0 0 0 0.12 0"/>
<feBlend mode="normal" in2="BackgroundImageFix" result="effect1_dropShadow_9007_54261"/>
<feBlend mode="normal" in="SourceGraphic" in2="effect1_dropShadow_9007_54261" result="shape"/>
</filter>
</defs>
</svg>
