<svg width="16" height="16" viewBox="0 0 16 16" fill="none" xmlns="http://www.w3.org/2000/svg">
<path d="M15.8021 6.78405L14.0137 6.25072C13.89 5.81942 13.72 5.40277 13.5065 5.00806L14.3821 3.37073C14.4149 3.30893 14.4269 3.23819 14.4164 3.16902C14.4058 3.09984 14.3732 3.03592 14.3233 2.98673L13.0474 1.70674C12.9982 1.65696 12.9342 1.62437 12.865 1.6138C12.7957 1.60324 12.7249 1.61525 12.663 1.64807L11.0348 2.5174C10.6358 2.29376 10.2133 2.11489 9.77489 1.98407L9.24103 0.218747C9.21845 0.15369 9.17579 0.0974673 9.11919 0.058173C9.06259 0.0188787 8.99496 -0.00146092 8.92606 8.16896e-05H7.12163C7.0523 0.000404127 6.98489 0.02282 6.9292 0.0640671C6.87351 0.105314 6.83245 0.16324 6.81199 0.229414L6.27813 1.9894C5.83611 2.11953 5.40996 2.2984 5.00756 2.52274L3.406 1.65874C3.34413 1.62592 3.27332 1.6139 3.20408 1.62447C3.13484 1.63504 3.07085 1.66763 3.02162 1.71741L1.72435 2.9814C1.67453 3.03058 1.6419 3.09451 1.63133 3.16368C1.62075 3.23286 1.63278 3.30359 1.66563 3.3654L2.53047 4.96539C2.30628 5.3657 2.12724 5.78963 1.99662 6.22938L0.229558 6.76271C0.163319 6.78315 0.105336 6.82417 0.0640483 6.87981C0.0227607 6.93544 0.000322755 7.00279 0 7.07205V8.8747C0.000322755 8.94396 0.0227607 9.01131 0.0640483 9.06694C0.105336 9.12258 0.163319 9.1636 0.229558 9.18403L2.00729 9.71737C2.13934 10.1498 2.31836 10.5665 2.54115 10.96L1.66563 12.6347C1.63278 12.6965 1.62075 12.7672 1.63133 12.8364C1.6419 12.9056 1.67453 12.9695 1.72435 13.0187L3.00027 14.2933C3.0495 14.3431 3.11348 14.3757 3.18273 14.3863C3.25197 14.3968 3.32278 14.3848 3.38464 14.352L5.03425 13.472C5.42448 13.6824 5.83611 13.8504 6.26212 13.9733L6.79597 15.7707C6.81643 15.8368 6.85749 15.8948 6.91318 15.936C6.96887 15.9773 7.03629 15.9997 7.10561 16H8.91004C8.97937 15.9997 9.04678 15.9773 9.10247 15.936C9.15816 15.8948 9.19922 15.8368 9.21968 15.7707L9.75353 13.968C10.1759 13.8445 10.5839 13.6764 10.9707 13.4667L12.631 14.352C12.6929 14.3848 12.7637 14.3968 12.8329 14.3863C12.9022 14.3757 12.9662 14.3431 13.0154 14.2933L14.2913 13.0187C14.3411 12.9695 14.3737 12.9056 14.3843 12.8364C14.3949 12.7672 14.3829 12.6965 14.35 12.6347L13.4638 10.9814C13.676 10.5935 13.846 10.184 13.971 9.76003L15.7701 9.2267C15.8363 9.20626 15.8943 9.16524 15.9356 9.10961C15.9769 9.05397 15.9993 8.98663 15.9996 8.91737V7.09871C16.0028 7.03239 15.9855 6.9667 15.9502 6.91045C15.9149 6.8542 15.8632 6.81009 15.8021 6.78405ZM8.02384 10.9334C7.44311 10.9334 6.87543 10.7613 6.39257 10.439C5.90972 10.1167 5.53338 9.65857 5.31114 9.12257C5.08891 8.58658 5.03076 7.99679 5.14406 7.42778C5.25735 6.85877 5.537 6.3361 5.94763 5.92587C6.35827 5.51564 6.88145 5.23627 7.45102 5.12309C8.02058 5.0099 8.61096 5.06799 9.14748 5.29001C9.684 5.51202 10.1426 5.88799 10.4652 6.37038C10.7878 6.85276 10.96 7.41989 10.96 8.00004C10.96 8.77801 10.6507 9.52411 10.1 10.0742C9.54941 10.6243 8.80257 10.9334 8.02384 10.9334Z" fill="#030F36"/>
</svg>
