<svg width="12" height="9" viewBox="0 0 12 9" fill="none" xmlns="http://www.w3.org/2000/svg">
<mask id="mask0_9007_54268" style="mask-type:alpha" maskUnits="userSpaceOnUse" x="0" y="0" width="12" height="9">
<path d="M10.3827 0.282433C10.7527 -0.0941442 11.3526 -0.0941442 11.7225 0.282433C12.0925 0.65901 12.0925 1.26956 11.7225 1.64614L4.77515 8.71757C4.40518 9.09414 3.80534 9.09414 3.43537 8.71757L0.277478 5.50328C-0.0924926 5.12671 -0.0924926 4.51615 0.277478 4.13958C0.647448 3.763 1.24729 3.763 1.61726 4.13958L4.10526 6.67201L10.3827 0.282433Z" fill="white"/>
</mask>
<g mask="url(#mask0_9007_54268)">
<path d="M10.3827 0.282433C10.7527 -0.0941442 11.3526 -0.0941442 11.7225 0.282433C12.0925 0.65901 12.0925 1.26956 11.7225 1.64614L4.77515 8.71757C4.40518 9.09414 3.80534 9.09414 3.43537 8.71757L0.277478 5.50328C-0.0924926 5.12671 -0.0924926 4.51615 0.277478 4.13958C0.647448 3.763 1.24729 3.763 1.61726 4.13958L4.10526 6.67201L10.3827 0.282433Z" fill="#3F61DB"/>
</g>
</svg>
