<svg width="24" height="24" viewBox="0 0 24 24" fill="none" xmlns="http://www.w3.org/2000/svg">
<path fill-rule="evenodd" clip-rule="evenodd" d="M16.885 4.74891C17.2184 5.04255 17.4364 5.65544 17.4793 6.0251C17.976 6.31794 18.5635 6.90843 18.6149 8.0206C19.5012 8.60549 20.1747 9.68725 19.3337 11.2691C19.822 11.7012 20.3666 13.0198 19.6662 14.0823C18.8506 15.3241 17.0778 15.4105 15.3109 15.1889C15.7823 16.4411 15.9591 17.5964 15.2133 18.7798C14.4717 19.8296 13.4481 20 13.0979 20C12.1399 20 11.4834 19.2167 11.2174 18.1733C11.1206 17.8821 11.0103 17.194 10.9674 17.0132C10.7443 15.861 9.99426 14.9392 8.71982 14.2503C8.15283 13.9408 7.55402 13.6872 6.93274 13.4934H4.96299C4.52442 13.4934 4 13.0718 4 12.5613V6.45156C4.06229 5.87388 4.39984 5.58583 5.01181 5.58583H7.62972C8.7779 5.3378 9.92271 5.07216 11.0633 4.78971C12.1652 4.50727 12.4068 4.41366 13.1778 4.21203C14.906 3.78636 16.1055 4.02 16.885 4.74811V4.74891ZM14.8799 5.08816C14.1905 5.08816 13.3176 5.28979 12.9304 5.40741C12.794 5.44821 12.5549 5.51542 12.3032 5.58423L12.0507 5.65384L11.8083 5.71945L11.3369 5.84587C11.3369 5.84587 10.15 6.14832 7.82417 6.66199C7.73747 6.6716 7.69117 6.678 7.68444 6.6796V12.5845C8.95636 13.0502 9.94712 13.615 10.6559 14.2791C11.7199 15.2745 12.0154 16.1738 12.1896 17.3252C12.2889 17.9037 12.4497 18.3702 12.6921 18.6894C12.7618 18.7851 12.8631 18.8558 12.98 18.8902C13.1038 18.9278 13.2747 18.9302 13.6391 18.743C14.0036 18.5542 14.4725 18.0605 14.5609 17.3252C14.6198 16.6107 14.4178 15.9914 14.1467 15.3401C14.0532 15.1182 13.9529 14.8989 13.8462 14.6824C13.6627 14.352 13.9388 13.8031 14.5078 13.9223C15.2705 14.1263 17.1628 14.4024 18.2302 13.9223C18.8506 13.5806 19.0046 13.0294 18.6906 12.2692C18.5868 12.095 18.4447 11.9441 18.2739 11.8268C18.1308 11.7452 17.8514 11.3915 18.1872 10.9906C18.5206 10.4826 19.008 9.44801 17.7748 8.80312C17.6887 8.75815 17.6168 8.69219 17.5665 8.61202C17.5162 8.53186 17.4893 8.44039 17.4886 8.34705C17.4717 8.12782 17.5088 7.31489 16.8741 6.95164C16.7226 6.87403 16.5399 6.81002 16.4363 6.62359C16.3707 6.50037 16.3496 6.20113 16.3496 6.20113C16.2629 5.69545 16.1434 5.22338 14.8799 5.08816ZM6.54131 6.6764H5.14565V12.4029H6.54131V6.6764Z" fill="#75818F"/>
</svg>
