<svg width="24" height="24" viewBox="0 0 24 24" fill="none" xmlns="http://www.w3.org/2000/svg">
<path d="M12 1C9.82441 1 7.69767 1.64514 5.88873 2.85383C4.07979 4.06253 2.66989 5.78049 1.83733 7.79048C1.00477 9.80047 0.786929 12.0122 1.21137 14.146C1.6358 16.2798 2.68345 18.2398 4.22183 19.7782C5.76021 21.3165 7.72022 22.3642 9.85401 22.7886C11.9878 23.2131 14.1995 22.9952 16.2095 22.1627C18.2195 21.3301 19.9375 19.9202 21.1462 18.1113C22.3549 16.3023 23 14.1756 23 12C22.9915 9.08522 21.8299 6.29224 19.7688 4.23118C17.7078 2.17011 14.9148 1.00846 12 1ZM17.5 12.9167H12.9167V17.5H11.0833V12.9167H6.5V11.0833H11.0833V6.5H12.9167V11.0833H17.5V12.9167Z" fill="#3F61DB"/>
</svg>
