<svg width="341" height="111" viewBox="0 0 341 111" fill="none" xmlns="http://www.w3.org/2000/svg">
<g opacity="0.5">
<g opacity="0.2" clip-path="url(#clip0_8479_57269)">
<path d="M223.281 35.748L216.335 42.6947C216.245 42.7843 216.173 42.891 216.124 43.0085C216.075 43.126 216.05 43.252 216.05 43.3793C216.05 43.5067 216.075 43.6327 216.124 43.7502C216.173 43.8677 216.245 43.9744 216.335 44.064L229.504 57.2342C229.594 57.3246 229.7 57.3965 229.817 57.4455C229.935 57.4945 230.061 57.5198 230.188 57.5198C230.315 57.5198 230.441 57.4945 230.558 57.4455C230.676 57.3965 230.782 57.3246 230.872 57.2342L237.818 50.2875C237.909 50.1978 237.981 50.0912 238.03 49.9737C238.079 49.8562 238.104 49.7301 238.104 49.6028C238.104 49.4755 238.079 49.3495 238.03 49.2319C237.981 49.1144 237.909 49.0078 237.818 48.9182L224.649 35.7489C224.559 35.6585 224.453 35.5867 224.335 35.5377C224.218 35.4888 224.092 35.4635 223.964 35.4635C223.837 35.4635 223.711 35.4888 223.594 35.5377C223.476 35.5867 223.369 35.6585 223.28 35.7489L223.281 35.748ZM231.244 54.4009C231.121 54.5304 230.973 54.6339 230.809 54.7053C230.646 54.7767 230.469 54.8145 230.291 54.8165C230.112 54.8186 229.935 54.7848 229.77 54.7171C229.605 54.6495 229.455 54.5494 229.329 54.4227C229.203 54.2961 229.104 54.1455 229.037 53.9798C228.97 53.8142 228.937 53.6368 228.941 53.4583C228.944 53.2797 228.982 53.1036 229.055 52.9403C229.127 52.7771 229.232 52.63 229.362 52.5078C229.616 52.2729 229.951 52.1457 230.296 52.1529C230.642 52.1601 230.971 52.3011 231.215 52.5463C231.459 52.7914 231.598 53.1216 231.604 53.4674C231.609 53.8131 231.48 54.1474 231.244 54.4V54.4009ZM228.697 51.8608C228.575 51.9918 228.427 52.0968 228.263 52.1694C228.099 52.2421 227.922 52.2808 227.743 52.2834C227.563 52.2861 227.385 52.2524 227.219 52.1846C227.053 52.1167 226.902 52.0161 226.776 51.8886C226.65 51.7612 226.55 51.6096 226.484 51.4429C226.418 51.2762 226.386 51.0978 226.39 50.9184C226.394 50.7391 226.435 50.5624 226.509 50.3991C226.583 50.2357 226.689 50.089 226.822 49.9677C227.076 49.737 227.41 49.6134 227.753 49.6226C228.096 49.6319 228.423 49.7733 228.665 50.0173C228.906 50.2614 229.045 50.5893 229.05 50.9327C229.056 51.2761 228.93 51.6086 228.696 51.8608H228.697ZM226.152 49.3152C226.029 49.4446 225.881 49.5481 225.717 49.6195C225.554 49.6909 225.377 49.7287 225.199 49.7308C225.02 49.7328 224.843 49.699 224.678 49.6314C224.512 49.5637 224.362 49.4636 224.237 49.337C224.111 49.2104 224.011 49.0598 223.945 48.8941C223.878 48.7284 223.845 48.5511 223.848 48.3725C223.851 48.194 223.89 48.0179 223.963 47.8546C224.035 47.6913 224.139 47.5442 224.27 47.422C224.523 47.1872 224.858 47.06 225.204 47.0672C225.55 47.0744 225.879 47.2154 226.123 47.4605C226.367 47.7057 226.506 48.0359 226.512 48.3816C226.517 48.7274 226.388 49.0617 226.152 49.3142V49.3152ZM223.605 46.7686C223.386 46.985 223.099 47.1189 222.792 47.1474C222.485 47.1759 222.178 47.0974 221.923 46.9251C221.668 46.7528 221.48 46.4974 221.392 46.2023C221.304 45.9073 221.32 45.5908 221.439 45.3066C221.558 45.0225 221.772 44.7883 222.043 44.6438C222.315 44.4993 222.629 44.4535 222.931 44.5141C223.233 44.5748 223.505 44.7381 223.7 44.9764C223.895 45.2147 224.001 45.5132 224.001 45.8211V45.822C224.001 45.9981 223.966 46.1723 223.898 46.3347C223.83 46.4972 223.731 46.6446 223.606 46.7686H223.605ZM221.065 44.223C220.846 44.4394 220.559 44.5733 220.252 44.6018C219.945 44.6303 219.638 44.5518 219.383 44.3795C219.128 44.2072 218.94 43.9518 218.852 43.6567C218.764 43.3617 218.78 43.0452 218.899 42.761C219.018 42.4769 219.231 42.2427 219.503 42.0982C219.775 41.9537 220.089 41.9079 220.391 41.9685C220.693 42.0291 220.964 42.1925 221.16 42.4308C221.355 42.669 221.461 42.9675 221.461 43.2755V43.2764C221.461 43.4524 221.426 43.6267 221.358 43.7891C221.29 43.9515 221.191 44.099 221.066 44.223H221.065ZM234.983 50.6606C234.764 50.8772 234.477 51.0114 234.171 51.0402C233.864 51.069 233.557 50.9907 233.301 50.8186C233.046 50.6466 232.858 50.3913 232.77 50.0963C232.681 49.8013 232.697 49.4848 232.816 49.2005C232.935 48.9163 233.148 48.6819 233.42 48.5372C233.692 48.3925 234.005 48.3464 234.307 48.4068C234.609 48.4672 234.881 48.6304 235.076 48.8685C235.272 49.1067 235.378 49.4051 235.378 49.7131V49.7149C235.378 49.8909 235.343 50.0652 235.275 50.2276C235.207 50.39 235.108 50.5375 234.983 50.6615V50.6606ZM232.438 48.114C232.219 48.3307 231.932 48.4648 231.625 48.4936C231.318 48.5224 231.011 48.4442 230.756 48.2721C230.5 48.1 230.312 47.8448 230.224 47.5498C230.135 47.2548 230.152 46.9382 230.27 46.654C230.389 46.3697 230.602 46.1353 230.874 45.9906C231.146 45.8459 231.46 45.7999 231.762 45.8603C232.064 45.9207 232.335 46.0838 232.531 46.322C232.726 46.5601 232.833 46.8586 232.833 47.1665V47.1684C232.832 47.3444 232.797 47.5186 232.73 47.6811C232.662 47.8435 232.563 47.9909 232.438 48.1149V48.114ZM229.891 45.5684C229.672 45.7851 229.385 45.9192 229.078 45.948C228.772 45.9768 228.465 45.8985 228.209 45.7265C227.954 45.5544 227.766 45.2991 227.677 45.0041C227.589 44.7091 227.605 44.3926 227.724 44.1084C227.842 43.8241 228.056 43.5897 228.328 43.445C228.599 43.3003 228.913 43.2542 229.215 43.3146C229.517 43.375 229.789 43.5382 229.984 43.7763C230.179 44.0145 230.286 44.3129 230.286 44.6209V44.6228C230.286 44.7988 230.251 44.973 230.183 45.1354C230.115 45.2979 230.016 45.4453 229.891 45.5693V45.5684ZM227.351 43.0283C227.132 43.2447 226.845 43.3786 226.538 43.4071C226.231 43.4356 225.924 43.3571 225.669 43.1848C225.414 43.0125 225.226 42.7571 225.138 42.462C225.05 42.167 225.066 41.8505 225.185 41.5663C225.304 41.2822 225.517 41.048 225.789 40.9035C226.061 40.759 226.375 40.7132 226.677 40.7738C226.979 40.8344 227.25 40.9978 227.446 41.2361C227.641 41.4743 227.747 41.7728 227.747 42.0808V42.0817C227.747 42.2577 227.712 42.432 227.644 42.5944C227.576 42.7568 227.477 42.9043 227.352 43.0283H227.351ZM224.805 40.4827C224.586 40.6991 224.299 40.8329 223.992 40.8615C223.686 40.89 223.379 40.8114 223.123 40.6391C222.868 40.4668 222.68 40.2114 222.592 39.9164C222.504 39.6213 222.521 39.3048 222.639 39.0207C222.758 38.7366 222.972 38.5023 223.244 38.3579C223.516 38.2134 223.829 38.1675 224.131 38.2282C224.433 38.2888 224.705 38.4522 224.9 38.6904C225.095 38.9287 225.202 39.2272 225.201 39.5352V39.5361C225.201 39.7121 225.166 39.8863 225.098 40.0488C225.03 40.2112 224.931 40.3587 224.806 40.4827H224.805Z" fill="white"/>
</g>
<g opacity="0.2" clip-path="url(#clip1_8479_57269)">
<path d="M75.578 89.8726L68.9479 96.5035C68.8616 96.5891 68.7931 96.6909 68.7463 96.8031C68.6996 96.9152 68.6755 97.0355 68.6755 97.1571C68.6755 97.2786 68.6996 97.3989 68.7463 97.5111C68.7931 97.6232 68.8616 97.725 68.9479 97.8106L81.5186 110.382C81.6039 110.468 81.7055 110.537 81.8176 110.584C81.9296 110.631 82.0498 110.655 82.1712 110.655C82.2926 110.655 82.4128 110.631 82.5249 110.584C82.6369 110.537 82.7385 110.468 82.8239 110.382L89.4548 103.751C89.5411 103.666 89.6096 103.564 89.6564 103.452C89.7031 103.339 89.7272 103.219 89.7272 103.098C89.7272 102.976 89.7031 102.856 89.6564 102.744C89.6096 102.631 89.5411 102.53 89.4548 102.444L76.8842 89.8735C76.7986 89.7871 76.6968 89.7186 76.5847 89.6719C76.4725 89.6251 76.3522 89.6011 76.2306 89.6011C76.1091 89.6011 75.9888 89.6251 75.8766 89.6719C75.7645 89.7186 75.6627 89.7871 75.5771 89.8735L75.578 89.8726ZM83.1791 107.678C83.0618 107.801 82.9208 107.9 82.7645 107.968C82.6083 108.036 82.44 108.072 82.2695 108.074C82.0991 108.076 81.93 108.044 81.7722 107.979C81.6144 107.915 81.4712 107.819 81.3511 107.698C81.2309 107.578 81.1362 107.434 81.0725 107.276C81.0089 107.118 80.9776 106.948 80.9806 106.778C80.9835 106.607 81.0206 106.439 81.0896 106.283C81.1587 106.128 81.2583 105.987 81.3826 105.871C81.6249 105.646 81.9447 105.525 82.2747 105.532C82.6046 105.539 82.9191 105.673 83.1519 105.907C83.3846 106.141 83.5176 106.457 83.5226 106.787C83.5277 107.117 83.4046 107.436 83.1791 107.677V107.678ZM80.7484 105.253C80.6314 105.378 80.4904 105.478 80.3338 105.548C80.1772 105.617 80.0082 105.654 79.837 105.656C79.6658 105.659 79.4958 105.627 79.3373 105.562C79.1787 105.497 79.0349 105.401 78.9144 105.28C78.7938 105.158 78.6991 105.013 78.6358 104.854C78.5725 104.695 78.542 104.525 78.5461 104.353C78.5501 104.182 78.5887 104.014 78.6595 103.858C78.7302 103.702 78.8318 103.562 78.9579 103.446C79.2008 103.226 79.5194 103.108 79.8471 103.117C80.1748 103.125 80.4865 103.26 80.7172 103.493C80.9479 103.726 81.0798 104.039 81.0855 104.367C81.0911 104.695 80.97 105.012 80.7475 105.253H80.7484ZM78.3184 102.823C78.201 102.947 78.0601 103.045 77.9038 103.114C77.7476 103.182 77.5792 103.218 77.4088 103.22C77.2384 103.222 77.0692 103.189 76.9115 103.125C76.7537 103.06 76.6105 102.965 76.4903 102.844C76.3702 102.723 76.2755 102.579 76.2118 102.421C76.1482 102.263 76.1169 102.094 76.1198 101.923C76.1228 101.753 76.1599 101.585 76.2289 101.429C76.298 101.273 76.3976 101.133 76.5219 101.016C76.7642 100.792 77.0839 100.67 77.4139 100.677C77.7439 100.684 78.0584 100.819 78.2912 101.053C78.5239 101.287 78.6568 101.602 78.6619 101.932C78.667 102.262 78.5439 102.581 78.3184 102.822V102.823ZM75.8876 100.392C75.6785 100.599 75.4043 100.727 75.1116 100.754C74.8189 100.781 74.5258 100.706 74.2821 100.542C74.0385 100.377 73.8593 100.133 73.7751 99.8517C73.6909 99.5701 73.7068 99.268 73.8202 98.9968C73.9336 98.7255 74.1374 98.502 74.397 98.364C74.6566 98.2261 74.956 98.1824 75.2442 98.2403C75.5324 98.2981 75.7917 98.4541 75.9779 98.6815C76.1641 98.909 76.2658 99.1939 76.2657 99.4879V99.4887C76.2654 99.6568 76.2319 99.8231 76.1672 99.9781C76.1025 100.133 76.0078 100.274 75.8885 100.392H75.8876ZM73.463 97.9624C73.2539 98.1689 72.9796 98.2967 72.6869 98.3239C72.3942 98.3512 72.1011 98.2762 71.8575 98.1117C71.6138 97.9473 71.4346 97.7035 71.3504 97.4218C71.2662 97.1402 71.2822 96.8381 71.3955 96.5668C71.5089 96.2956 71.7127 96.072 71.9723 95.9341C72.232 95.7962 72.5313 95.7525 72.8195 95.8104C73.1077 95.8682 73.367 96.0241 73.5532 96.2516C73.7395 96.479 73.8412 96.764 73.8411 97.0579V97.0588C73.8408 97.2268 73.8073 97.3931 73.7426 97.5482C73.6778 97.7032 73.5831 97.844 73.4639 97.9624H73.463ZM86.7486 104.107C86.5396 104.314 86.2655 104.442 85.9728 104.47C85.6801 104.497 85.3869 104.422 85.1431 104.258C84.8993 104.094 84.7199 103.85 84.6355 103.569C84.551 103.287 84.5667 102.985 84.6798 102.714C84.793 102.442 84.9967 102.219 85.2562 102.08C85.5157 101.942 85.815 101.898 86.1033 101.956C86.3916 102.014 86.651 102.169 86.8374 102.397C87.0238 102.624 87.1257 102.909 87.1258 103.203V103.205C87.1255 103.373 87.092 103.539 87.0273 103.694C86.9625 103.849 86.8678 103.99 86.7486 104.108V104.107ZM84.3187 101.677C84.1097 101.883 83.8356 102.011 83.5429 102.039C83.2502 102.066 82.957 101.992 82.7132 101.827C82.4694 101.663 82.29 101.42 82.2055 101.138C82.1211 100.856 82.1368 100.554 82.2499 100.283C82.3631 100.012 82.5667 99.7878 82.8263 99.6496C83.0858 99.5115 83.3851 99.4675 83.6734 99.5252C83.9617 99.5829 84.2211 99.7386 84.4075 99.9659C84.5939 100.193 84.6958 100.478 84.6959 100.772V100.774C84.6956 100.942 84.6621 101.108 84.5974 101.263C84.5326 101.418 84.4379 101.559 84.3187 101.677V101.677ZM81.8879 99.2466C81.6789 99.4534 81.4048 99.5815 81.1121 99.609C80.8194 99.6365 80.5262 99.5617 80.2824 99.3975C80.0386 99.2332 79.8592 98.9896 79.7747 98.708C79.6903 98.4264 79.706 98.1243 79.8191 97.8529C79.9323 97.5816 80.136 97.3579 80.3955 97.2197C80.655 97.0816 80.9543 97.0376 81.2426 97.0953C81.5309 97.153 81.7903 97.3087 81.9767 97.536C82.1631 97.7633 82.265 98.0482 82.2651 98.3422V98.344C82.2648 98.512 82.2313 98.6783 82.1666 98.8333C82.1018 98.9884 82.0071 99.1291 81.8879 99.2475V99.2466ZM79.4632 96.822C79.2541 97.0286 78.9798 97.1563 78.6871 97.1836C78.3944 97.2108 78.1013 97.1358 77.8577 96.9713C77.614 96.8069 77.4349 96.5631 77.3507 96.2814C77.2664 95.9998 77.2824 95.6977 77.3958 95.4264C77.5091 95.1552 77.713 94.9316 77.9726 94.7937C78.2322 94.6558 78.5315 94.6121 78.8198 94.67C79.108 94.7278 79.3672 94.8838 79.5535 95.1112C79.7397 95.3386 79.8414 95.6236 79.8413 95.9175V95.9184C79.841 96.0864 79.8075 96.2527 79.7428 96.4078C79.6781 96.5629 79.5833 96.7036 79.4641 96.822H79.4632ZM77.0333 94.392C76.8242 94.5986 76.5499 94.7264 76.2572 94.7536C75.9645 94.7809 75.6714 94.7059 75.4278 94.5414C75.1841 94.3769 75.005 94.1332 74.9207 93.8515C74.8365 93.5699 74.8525 93.2677 74.9658 92.9965C75.0792 92.7253 75.2831 92.5017 75.5427 92.3638C75.8023 92.2259 76.1016 92.1822 76.3898 92.24C76.6781 92.2979 76.9373 92.4538 77.1236 92.6813C77.3098 92.9087 77.4115 93.1937 77.4114 93.4876V93.4885C77.4111 93.6565 77.3776 93.8228 77.3129 93.9779C77.2481 94.1329 77.1534 94.2737 77.0342 94.392H77.0333Z" fill="white"/>
</g>
<g opacity="0.2" clip-path="url(#clip2_8479_57269)">
<path d="M86.606 30.7224L79.9759 37.3534C79.8896 37.439 79.8211 37.5408 79.7743 37.6529C79.7276 37.7651 79.7035 37.8854 79.7035 38.0069C79.7035 38.1285 79.7276 38.2488 79.7743 38.3609C79.8211 38.4731 79.8896 38.5749 79.9759 38.6605L92.5465 51.232C92.6319 51.3184 92.7335 51.3869 92.8456 51.4337C92.9576 51.4805 93.0778 51.5046 93.1992 51.5046C93.3206 51.5046 93.4408 51.4805 93.5529 51.4337C93.6649 51.3869 93.7665 51.3184 93.8519 51.232L100.483 44.601C100.569 44.5155 100.638 44.4137 100.684 44.3015C100.731 44.1894 100.755 44.069 100.755 43.9475C100.755 43.826 100.731 43.7057 100.684 43.5935C100.638 43.4813 100.569 43.3795 100.483 43.294L87.9122 30.7233C87.8266 30.637 87.7248 30.5685 87.6126 30.5218C87.5005 30.475 87.3802 30.4509 87.2586 30.4509C87.1371 30.4509 87.0168 30.475 86.9046 30.5218C86.7924 30.5685 86.6906 30.637 86.6051 30.7233L86.606 30.7224ZM94.2071 48.5275C94.0897 48.6511 93.9488 48.7499 93.7925 48.818C93.6363 48.8862 93.4679 48.9223 93.2975 48.9242C93.1271 48.9262 92.9579 48.8939 92.8002 48.8294C92.6424 48.7648 92.4992 48.6693 92.379 48.5484C92.2589 48.4275 92.1642 48.2837 92.1005 48.1256C92.0369 47.9675 92.0056 47.7982 92.0085 47.6277C92.0115 47.4573 92.0486 47.2892 92.1176 47.1333C92.1867 46.9775 92.2863 46.8371 92.4106 46.7204C92.6529 46.4963 92.9726 46.3749 93.3026 46.3817C93.6326 46.3886 93.9471 46.5232 94.1799 46.7572C94.4126 46.9912 94.5455 47.3064 94.5506 47.6364C94.5557 47.9664 94.4326 48.2856 94.2071 48.5266V48.5275ZM91.7763 46.1029C91.6594 46.228 91.5184 46.3282 91.3618 46.3975C91.2052 46.4668 91.0362 46.5038 90.865 46.5063C90.6938 46.5088 90.5238 46.4767 90.3653 46.4119C90.2067 46.3472 90.0629 46.2511 89.9423 46.1295C89.8218 46.0078 89.7271 45.8631 89.6638 45.7039C89.6005 45.5448 89.57 45.3745 89.5741 45.2033C89.5781 45.0321 89.6167 44.8635 89.6875 44.7076C89.7582 44.5516 89.8598 44.4116 89.9859 44.2958C90.2288 44.0756 90.5473 43.9576 90.8751 43.9665C91.2028 43.9753 91.5145 44.1102 91.7452 44.3432C91.9759 44.5762 92.1078 44.8892 92.1134 45.217C92.1191 45.5448 91.998 45.8621 91.7755 46.1029H91.7763ZM89.3464 43.6729C89.229 43.7965 89.088 43.8953 88.9318 43.9635C88.7756 44.0316 88.6072 44.0677 88.4368 44.0697C88.2663 44.0716 88.0972 44.0394 87.9395 43.9748C87.7817 43.9102 87.6385 43.8147 87.5183 43.6938C87.3982 43.5729 87.3034 43.4292 87.2398 43.271C87.1762 43.1129 87.1449 42.9436 87.1478 42.7732C87.1508 42.6027 87.1879 42.4346 87.2569 42.2788C87.326 42.1229 87.4256 41.9825 87.5499 41.8659C87.7922 41.6417 88.1119 41.5203 88.4419 41.5271C88.7719 41.534 89.0864 41.6686 89.3192 41.9026C89.5519 42.1366 89.6848 42.4518 89.6899 42.7818C89.695 43.1119 89.5719 43.431 89.3464 43.6721V43.6729ZM86.9156 41.2421C86.7065 41.4487 86.4323 41.5765 86.1396 41.6037C85.8469 41.631 85.5538 41.556 85.3101 41.3915C85.0665 41.227 84.8873 40.9833 84.8031 40.7016C84.7189 40.42 84.7348 40.1179 84.8482 39.8466C84.9616 39.5754 85.1654 39.3518 85.425 39.2139C85.6846 39.076 85.984 39.0323 86.2722 39.0901C86.5604 39.148 86.8197 39.3039 87.0059 39.5314C87.1921 39.7588 87.2938 40.0438 87.2937 40.3377V40.3386C87.2934 40.5066 87.2599 40.6729 87.1952 40.828C87.1305 40.983 87.0358 41.1238 86.9165 41.2421H86.9156ZM84.491 38.8122C84.2818 39.0188 84.0076 39.1466 83.7149 39.1738C83.4222 39.201 83.1291 39.1261 82.8855 38.9616C82.6418 38.7971 82.4626 38.5533 82.3784 38.2717C82.2942 37.9901 82.3101 37.6879 82.4235 37.4167C82.5369 37.1455 82.7407 36.9219 83.0003 36.784C83.2599 36.6461 83.5593 36.6024 83.8475 36.6602C84.1357 36.7181 84.395 36.874 84.5812 37.1015C84.7675 37.3289 84.8692 37.6138 84.8691 37.9078V37.9087C84.8688 38.0767 84.8353 38.243 84.7705 38.3981C84.7058 38.5531 84.6111 38.6939 84.4919 38.8122H84.491ZM97.7766 44.9572C97.5676 45.164 97.2935 45.292 97.0008 45.3195C96.7081 45.3471 96.4149 45.2723 96.1711 45.1081C95.9273 44.9438 95.7479 44.7002 95.6635 44.4186C95.579 44.137 95.5947 43.8349 95.7078 43.5635C95.821 43.2922 96.0247 43.0684 96.2842 42.9303C96.5437 42.7922 96.843 42.7482 97.1313 42.8059C97.4196 42.8635 97.679 43.0193 97.8654 43.2466C98.0518 43.4739 98.1537 43.7588 98.1538 44.0528V44.0545C98.1535 44.2226 98.12 44.3889 98.0553 44.5439C97.9905 44.699 97.8958 44.8397 97.7766 44.9581V44.9572ZM95.3467 42.5264C95.1377 42.7332 94.8636 42.8612 94.5709 42.8888C94.2782 42.9163 93.985 42.8415 93.7412 42.6773C93.4974 42.513 93.318 42.2694 93.2335 41.9878C93.1491 41.7062 93.1648 41.4041 93.2779 41.1327C93.3911 40.8614 93.5947 40.6376 93.8542 40.4995C94.1138 40.3614 94.4131 40.3174 94.7014 40.3751C94.9896 40.4327 95.249 40.5885 95.4355 40.8158C95.6219 41.0431 95.7238 41.328 95.7239 41.622V41.6237C95.7236 41.7918 95.6901 41.9581 95.6253 42.1131C95.5606 42.2682 95.4659 42.4089 95.3467 42.5273V42.5264ZM92.9159 40.0965C92.7069 40.3033 92.4328 40.4313 92.1401 40.4588C91.8474 40.4863 91.5542 40.4116 91.3104 40.2474C91.0666 40.0831 90.8872 39.8395 90.8027 39.5579C90.7183 39.2763 90.734 38.9741 90.8471 38.7028C90.9603 38.4315 91.1639 38.2077 91.4235 38.0696C91.683 37.9315 91.9823 37.8875 92.2706 37.9452C92.5589 38.0028 92.8183 38.1586 93.0047 38.3859C93.1911 38.6132 93.293 38.8981 93.2931 39.1921V39.1938C93.2928 39.3618 93.2593 39.5282 93.1946 39.6832C93.1298 39.8383 93.0351 39.979 92.9159 40.0974V40.0965ZM90.4912 37.6718C90.2821 37.8784 90.0078 38.0062 89.7151 38.0334C89.4224 38.0607 89.1293 37.9857 88.8857 37.8212C88.642 37.6567 88.4629 37.4129 88.3786 37.1313C88.2944 36.8497 88.3104 36.5475 88.4238 36.2763C88.5371 36.0051 88.741 35.7815 89.0006 35.6436C89.2602 35.5057 89.5595 35.462 89.8477 35.5198C90.136 35.5777 90.3952 35.7336 90.5815 35.9611C90.7677 36.1885 90.8694 36.4735 90.8693 36.7674V36.7683C90.869 36.9363 90.8355 37.1026 90.7708 37.2577C90.706 37.4127 90.6113 37.5535 90.4921 37.6718H90.4912ZM88.0613 35.2419C87.8522 35.4485 87.5779 35.5763 87.2852 35.6035C86.9925 35.6307 86.6994 35.5557 86.4558 35.3913C86.2121 35.2268 86.0329 34.983 85.9487 34.7014C85.8645 34.4197 85.8805 34.1176 85.9938 33.8464C86.1072 33.5752 86.311 33.3516 86.5706 33.2137C86.8303 33.0758 87.1296 33.032 87.4178 33.0899C87.706 33.1478 87.9653 33.3037 88.1515 33.5312C88.3378 33.7586 88.4395 34.0435 88.4394 34.3375V34.3384C88.4391 34.5064 88.4056 34.6727 88.3409 34.8278C88.2761 34.9828 88.1814 35.1236 88.0622 35.2419H88.0613Z" fill="white"/>
</g>
<g opacity="0.2" clip-path="url(#clip3_8479_57269)">
<path d="M279.423 86.8777L272.477 93.8245C272.387 93.9141 272.315 94.0207 272.266 94.1382C272.217 94.2558 272.192 94.3818 272.192 94.5091C272.192 94.6364 272.217 94.7625 272.266 94.88C272.315 94.9975 272.387 95.1041 272.477 95.1938L285.647 108.364C285.736 108.454 285.843 108.526 285.96 108.575C286.077 108.624 286.203 108.65 286.33 108.65C286.458 108.65 286.584 108.624 286.701 108.575C286.818 108.526 286.925 108.454 287.014 108.364L293.961 101.417C294.051 101.328 294.123 101.221 294.172 101.103C294.221 100.986 294.246 100.86 294.246 100.733C294.246 100.605 294.221 100.479 294.172 100.362C294.123 100.244 294.051 100.138 293.961 100.048L280.792 86.8787C280.702 86.7883 280.595 86.7165 280.478 86.6675C280.36 86.6185 280.234 86.5933 280.107 86.5933C279.98 86.5933 279.854 86.6185 279.736 86.6675C279.619 86.7165 279.512 86.7883 279.422 86.8787L279.423 86.8777ZM287.386 105.531C287.263 105.66 287.116 105.764 286.952 105.835C286.788 105.906 286.612 105.944 286.433 105.946C286.255 105.948 286.078 105.915 285.912 105.847C285.747 105.779 285.597 105.679 285.471 105.553C285.345 105.426 285.246 105.275 285.179 105.11C285.113 104.944 285.08 104.767 285.083 104.588C285.086 104.409 285.125 104.233 285.197 104.07C285.27 103.907 285.374 103.76 285.504 103.638C285.758 103.403 286.093 103.276 286.439 103.283C286.784 103.29 287.114 103.431 287.358 103.676C287.602 103.921 287.741 104.251 287.746 104.597C287.752 104.943 287.623 105.277 287.386 105.53V105.531ZM284.84 102.991C284.717 103.122 284.57 103.227 284.406 103.299C284.241 103.372 284.064 103.411 283.885 103.413C283.706 103.416 283.528 103.382 283.362 103.314C283.195 103.247 283.045 103.146 282.918 103.018C282.792 102.891 282.693 102.739 282.627 102.573C282.56 102.406 282.528 102.228 282.533 102.048C282.537 101.869 282.577 101.692 282.651 101.529C282.726 101.365 282.832 101.219 282.964 101.097C283.219 100.867 283.552 100.743 283.896 100.752C284.239 100.762 284.565 100.903 284.807 101.147C285.049 101.391 285.187 101.719 285.193 102.062C285.199 102.406 285.072 102.738 284.839 102.991H284.84ZM282.294 100.445C282.171 100.574 282.023 100.678 281.86 100.749C281.696 100.821 281.52 100.859 281.341 100.861C281.163 100.863 280.985 100.829 280.82 100.761C280.655 100.694 280.505 100.593 280.379 100.467C280.253 100.34 280.154 100.19 280.087 100.024C280.021 99.8582 279.988 99.6809 279.991 99.5023C279.994 99.3238 280.033 99.1476 280.105 98.9844C280.178 98.8211 280.282 98.674 280.412 98.5518C280.666 98.317 281.001 98.1898 281.347 98.197C281.692 98.2041 282.022 98.3451 282.266 98.5903C282.509 98.8355 282.649 99.1656 282.654 99.5114C282.659 99.8571 282.53 100.191 282.294 100.444V100.445ZM279.748 97.8984C279.529 98.1148 279.241 98.2487 278.935 98.2772C278.628 98.3057 278.321 98.2272 278.066 98.0549C277.81 97.8826 277.623 97.6272 277.534 97.3321C277.446 97.0371 277.463 96.7205 277.582 96.4364C277.7 96.1523 277.914 95.9181 278.186 95.7736C278.458 95.6291 278.772 95.5833 279.074 95.6439C279.375 95.7045 279.647 95.8679 279.842 96.1062C280.037 96.3444 280.144 96.6429 280.144 96.9509V96.9518C280.143 97.1278 280.108 97.3021 280.04 97.4645C279.973 97.6269 279.873 97.7744 279.749 97.8984H279.748ZM277.208 95.3528C276.988 95.5692 276.701 95.703 276.394 95.7316C276.088 95.7601 275.781 95.6815 275.526 95.5092C275.27 95.3369 275.083 95.0815 274.994 94.7865C274.906 94.4914 274.923 94.1749 275.042 93.8908C275.16 93.6067 275.374 93.3724 275.646 93.2279C275.918 93.0835 276.231 93.0376 276.533 93.0983C276.835 93.1589 277.107 93.3223 277.302 93.5605C277.497 93.7988 277.604 94.0973 277.604 94.4053V94.4062C277.603 94.5822 277.568 94.7564 277.5 94.9189C277.433 95.0813 277.333 95.2288 277.208 95.3528H277.208ZM291.126 101.79C290.907 102.007 290.62 102.141 290.313 102.17C290.006 102.199 289.699 102.12 289.444 101.948C289.188 101.776 289 101.521 288.912 101.226C288.824 100.931 288.84 100.615 288.958 100.33C289.077 100.046 289.29 99.8116 289.562 99.6669C289.834 99.5222 290.148 99.4762 290.45 99.5366C290.752 99.597 291.023 99.7601 291.219 99.9983C291.414 100.236 291.521 100.535 291.521 100.843V100.845C291.521 101.021 291.486 101.195 291.418 101.357C291.35 101.52 291.251 101.667 291.126 101.791V101.79ZM288.58 99.2438C288.361 99.4604 288.074 99.5946 287.767 99.6234C287.461 99.6522 287.154 99.5739 286.898 99.4018C286.643 99.2298 286.455 98.9745 286.366 98.6795C286.278 98.3845 286.294 98.068 286.413 97.7838C286.531 97.4995 286.745 97.2651 287.017 97.1204C287.289 96.9757 287.602 96.9296 287.904 96.99C288.206 97.0504 288.478 97.2136 288.673 97.4517C288.868 97.6899 288.975 97.9883 288.975 98.2963V98.2982C288.975 98.4742 288.94 98.6484 288.872 98.8108C288.804 98.9733 288.705 99.1207 288.58 99.2447V99.2438ZM286.034 96.6982C285.815 96.9148 285.527 97.049 285.221 97.0778C284.914 97.1066 284.607 97.0283 284.352 96.8562C284.096 96.6841 283.908 96.4289 283.82 96.1339C283.731 95.8389 283.748 95.5224 283.866 95.2381C283.985 94.9539 284.198 94.7195 284.47 94.5748C284.742 94.4301 285.056 94.384 285.358 94.4444C285.66 94.5048 285.931 94.668 286.127 94.9061C286.322 95.1443 286.429 95.4427 286.429 95.7507V95.7525C286.428 95.9285 286.393 96.1028 286.326 96.2652C286.258 96.4276 286.159 96.5751 286.034 96.6991V96.6982ZM283.493 94.1581C283.274 94.3745 282.987 94.5083 282.68 94.5369C282.374 94.5654 282.067 94.4868 281.811 94.3145C281.556 94.1422 281.369 93.8868 281.28 93.5918C281.192 93.2967 281.209 92.9802 281.328 92.6961C281.446 92.412 281.66 92.1777 281.932 92.0332C282.204 91.8888 282.517 91.8429 282.819 91.9036C283.121 91.9642 283.393 92.1276 283.588 92.3658C283.783 92.6041 283.89 92.9026 283.89 93.2106V93.2115C283.889 93.3875 283.854 93.5617 283.786 93.7242C283.719 93.8866 283.619 94.0341 283.494 94.1581H283.493ZM280.948 91.6124C280.729 91.8289 280.441 91.9627 280.135 91.9912C279.828 92.0198 279.521 91.9412 279.266 91.7689C279.011 91.5966 278.823 91.3412 278.735 91.0462C278.646 90.7511 278.663 90.4346 278.782 90.1505C278.901 89.8663 279.114 89.6321 279.386 89.4876C279.658 89.3431 279.972 89.2973 280.274 89.358C280.576 89.4186 280.847 89.5819 281.042 89.8202C281.237 90.0585 281.344 90.357 281.344 90.6649V90.6659C281.344 90.8419 281.309 91.0161 281.241 91.1785C281.173 91.341 281.074 91.4884 280.949 91.6124H280.948Z" fill="white"/>
</g>
<g opacity="0.2" clip-path="url(#clip4_8479_57269)">
<path d="M164.788 86.9036L157.211 94.4818C157.112 94.5796 157.034 94.696 156.98 94.8242C156.927 94.9523 156.899 95.0899 156.899 95.2287C156.899 95.3676 156.927 95.5051 156.98 95.6333C157.034 95.7615 157.112 95.8779 157.211 95.9756L171.577 110.343C171.675 110.442 171.791 110.52 171.919 110.574C172.047 110.627 172.184 110.655 172.323 110.655C172.462 110.655 172.599 110.627 172.727 110.574C172.855 110.52 172.971 110.442 173.069 110.343L180.647 102.765C180.746 102.667 180.824 102.551 180.878 102.423C180.931 102.294 180.959 102.157 180.959 102.018C180.959 101.879 180.931 101.742 180.878 101.613C180.824 101.485 180.746 101.369 180.647 101.271L166.281 86.9046C166.183 86.806 166.067 86.7277 165.938 86.6743C165.81 86.6208 165.673 86.5933 165.534 86.5933C165.395 86.5933 165.257 86.6208 165.129 86.6743C165.001 86.7277 164.885 86.806 164.787 86.9046L164.788 86.9036ZM173.475 107.252C173.341 107.394 173.18 107.506 173.001 107.584C172.823 107.662 172.63 107.703 172.435 107.706C172.241 107.708 172.047 107.671 171.867 107.597C171.687 107.523 171.523 107.414 171.386 107.276C171.248 107.138 171.14 106.974 171.067 106.793C170.995 106.612 170.959 106.419 170.962 106.224C170.966 106.029 171.008 105.837 171.087 105.659C171.166 105.481 171.28 105.32 171.422 105.187C171.699 104.931 172.064 104.792 172.441 104.8C172.818 104.808 173.178 104.962 173.444 105.229C173.71 105.496 173.862 105.857 173.868 106.234C173.873 106.611 173.733 106.976 173.475 107.251V107.252ZM170.697 104.481C170.563 104.624 170.402 104.739 170.223 104.818C170.044 104.897 169.851 104.939 169.655 104.942C169.46 104.945 169.265 104.908 169.084 104.834C168.903 104.76 168.739 104.651 168.601 104.512C168.463 104.373 168.355 104.207 168.283 104.025C168.21 103.843 168.175 103.649 168.18 103.453C168.185 103.258 168.229 103.065 168.31 102.887C168.391 102.708 168.507 102.548 168.651 102.416C168.928 102.164 169.292 102.03 169.667 102.04C170.042 102.05 170.398 102.204 170.661 102.47C170.925 102.736 171.076 103.094 171.082 103.469C171.089 103.843 170.95 104.206 170.696 104.481H170.697ZM167.92 101.704C167.786 101.845 167.625 101.958 167.446 102.036C167.267 102.114 167.075 102.155 166.88 102.158C166.686 102.16 166.492 102.123 166.312 102.049C166.132 101.975 165.968 101.866 165.831 101.728C165.693 101.59 165.585 101.426 165.512 101.245C165.44 101.064 165.404 100.871 165.407 100.676C165.411 100.481 165.453 100.289 165.532 100.111C165.611 99.9327 165.725 99.7723 165.867 99.6389C166.144 99.3828 166.509 99.244 166.886 99.2518C167.263 99.2597 167.623 99.4135 167.889 99.6809C168.155 99.9484 168.307 100.309 168.312 100.686C168.318 101.063 168.178 101.428 167.92 101.703V101.704ZM165.142 98.9261C164.903 99.1622 164.589 99.3082 164.255 99.3394C163.92 99.3705 163.585 99.2848 163.307 99.0968C163.029 98.9089 162.824 98.6302 162.728 98.3084C162.631 97.9865 162.649 97.6412 162.779 97.3312C162.909 97.0213 163.142 96.7658 163.438 96.6081C163.735 96.4505 164.077 96.4005 164.406 96.4667C164.736 96.5328 165.032 96.711 165.245 96.971C165.458 97.2309 165.574 97.5565 165.574 97.8925V97.8935C165.574 98.0855 165.535 98.2756 165.461 98.4528C165.387 98.63 165.279 98.7908 165.143 98.9261H165.142ZM162.371 96.1491C162.132 96.3852 161.818 96.5312 161.484 96.5623C161.149 96.5934 160.814 96.5077 160.536 96.3198C160.257 96.1318 160.053 95.8532 159.956 95.5313C159.86 95.2094 159.878 94.8642 160.008 94.5542C160.138 94.2442 160.371 93.9887 160.667 93.8311C160.964 93.6735 161.306 93.6235 161.635 93.6896C161.965 93.7558 162.261 93.934 162.474 94.1939C162.687 94.4539 162.803 94.7795 162.803 95.1154V95.1165C162.803 95.3085 162.764 95.4985 162.69 95.6757C162.616 95.8529 162.508 96.0138 162.372 96.1491H162.371ZM177.554 103.172C177.316 103.408 177.002 103.555 176.668 103.586C176.333 103.617 175.998 103.532 175.72 103.344C175.441 103.157 175.236 102.878 175.139 102.556C175.043 102.235 175.061 101.889 175.19 101.579C175.319 101.269 175.552 101.013 175.849 100.855C176.145 100.698 176.487 100.647 176.817 100.713C177.146 100.779 177.443 100.957 177.656 101.217C177.869 101.477 177.985 101.802 177.985 102.138V102.14C177.985 102.332 177.947 102.522 177.873 102.7C177.799 102.877 177.691 103.038 177.554 103.173V103.172ZM174.777 100.394C174.539 100.63 174.225 100.777 173.891 100.808C173.556 100.839 173.221 100.754 172.943 100.566C172.664 100.379 172.459 100.1 172.362 99.7783C172.266 99.4565 172.284 99.1112 172.413 98.8011C172.542 98.491 172.775 98.2353 173.072 98.0774C173.368 97.9195 173.71 97.8693 174.04 97.9352C174.369 98.0011 174.666 98.1791 174.879 98.4389C175.092 98.6987 175.208 99.0242 175.208 99.3602V99.3622C175.208 99.5543 175.17 99.7443 175.096 99.9215C175.022 100.099 174.914 100.26 174.777 100.395V100.394ZM171.999 97.6168C171.76 97.8531 171.447 97.9995 171.113 98.0309C170.778 98.0623 170.443 97.9769 170.164 97.7892C169.886 97.6015 169.681 97.3231 169.584 97.0012C169.488 96.6794 169.506 96.3341 169.635 96.024C169.764 95.7139 169.997 95.4582 170.294 95.3004C170.59 95.1425 170.932 95.0922 171.262 95.1581C171.591 95.224 171.888 95.402 172.101 95.6618C172.314 95.9216 172.43 96.2472 172.43 96.5832V96.5852C172.43 96.7772 172.392 96.9673 172.318 97.1445C172.244 97.3217 172.136 97.4825 171.999 97.6178V97.6168ZM169.228 94.8458C168.989 95.0819 168.676 95.2279 168.341 95.259C168.007 95.2901 167.672 95.2044 167.393 95.0165C167.115 94.8285 166.91 94.5499 166.814 94.228C166.718 93.9061 166.736 93.5609 166.865 93.2509C166.995 92.9409 167.228 92.6854 167.525 92.5278C167.821 92.3702 168.163 92.3202 168.493 92.3863C168.822 92.4525 169.119 92.6307 169.331 92.8906C169.544 93.1505 169.66 93.4762 169.66 93.8121V93.8131C169.66 94.0052 169.622 94.1952 169.548 94.3724C169.474 94.5496 169.366 94.7105 169.229 94.8458H169.228ZM166.451 92.0687C166.212 92.3048 165.899 92.4508 165.564 92.482C165.23 92.5131 164.895 92.4274 164.616 92.2394C164.338 92.0515 164.133 91.7728 164.037 91.451C163.941 91.1291 163.959 90.7838 164.088 90.4738C164.218 90.1639 164.451 89.9084 164.748 89.7507C165.044 89.5931 165.386 89.5431 165.716 89.6093C166.045 89.6754 166.341 89.8536 166.554 90.1136C166.767 90.3735 166.883 90.6991 166.883 91.0351V91.0361C166.883 91.2281 166.845 91.4182 166.771 91.5954C166.697 91.7726 166.588 91.9334 166.452 92.0687H166.451Z" fill="white"/>
</g>
<path opacity="0.2" d="M112.536 36.1526C112.536 35.68 112.787 35.2268 113.234 34.8926C113.68 34.5584 114.286 34.3707 114.917 34.3707H119.679C120.311 34.3707 120.917 34.5584 121.363 34.8926C121.81 35.2268 122.061 35.68 122.061 36.1526V37.9346H124.442C125.073 37.9346 125.679 38.1223 126.125 38.4565C126.572 38.7907 126.823 39.2439 126.823 39.7165V43.2804C126.823 43.753 126.572 44.2062 126.125 44.5404C125.679 44.8746 125.073 45.0623 124.442 45.0623H122.061V46.8443C122.061 47.3169 121.81 47.7701 121.363 48.1043C120.917 48.4385 120.311 48.6262 119.679 48.6262H114.917C114.286 48.6262 113.68 48.4385 113.234 48.1043C112.787 47.7701 112.536 47.3169 112.536 46.8443V45.0623H110.155C109.524 45.0623 108.918 44.8746 108.472 44.5404C108.025 44.2062 107.774 43.753 107.774 43.2804V39.7165C107.774 39.2439 108.025 38.7907 108.472 38.4565C108.918 38.1223 109.524 37.9346 110.155 37.9346H112.536V36.1526ZM119.679 36.1526H114.917V38.8255C114.917 39.0618 114.792 39.2885 114.569 39.4555C114.345 39.6226 114.043 39.7165 113.727 39.7165H110.155V43.2804H113.727C114.043 43.2804 114.345 43.3743 114.569 43.5414C114.792 43.7084 114.917 43.9351 114.917 44.1714V46.8443H119.679V44.1714C119.679 43.9351 119.805 43.7084 120.028 43.5414C120.251 43.3743 120.554 43.2804 120.87 43.2804H124.442V39.7165H120.87C120.554 39.7165 120.251 39.6226 120.028 39.4555C119.805 39.2885 119.679 39.0618 119.679 38.8255V36.1526Z" fill="white"/>
<path opacity="0.2" d="M55.3913 10.6416C55.3913 10.169 55.6422 9.71574 56.0887 9.38156C56.5352 9.04738 57.1409 8.85964 57.7724 8.85964H62.5344C63.1659 8.85964 63.7716 9.04738 64.2181 9.38156C64.6646 9.71574 64.9155 10.169 64.9155 10.6416V12.4235H67.2965C67.928 12.4235 68.5337 12.6113 68.9802 12.9454C69.4267 13.2796 69.6776 13.7329 69.6776 14.2055V17.7694C69.6776 18.242 69.4267 18.6952 68.9802 19.0294C68.5337 19.3636 67.928 19.5513 67.2965 19.5513H64.9155V21.3332C64.9155 21.8058 64.6646 22.2591 64.2181 22.5933C63.7716 22.9274 63.1659 23.1152 62.5344 23.1152H57.7724C57.1409 23.1152 56.5352 22.9274 56.0887 22.5933C55.6422 22.2591 55.3913 21.8058 55.3913 21.3332V19.5513H53.0103C52.3788 19.5513 51.7732 19.3636 51.3266 19.0294C50.8801 18.6952 50.6292 18.242 50.6292 17.7694V14.2055C50.6292 13.7329 50.8801 13.2796 51.3266 12.9454C51.7732 12.6113 52.3788 12.4235 53.0103 12.4235H55.3913V10.6416ZM62.5344 10.6416H57.7724V13.3145C57.7724 13.5508 57.6469 13.7774 57.4237 13.9445C57.2004 14.1116 56.8976 14.2055 56.5818 14.2055H53.0103V17.7694H56.5818C56.8976 17.7694 57.2004 17.8632 57.4237 18.0303C57.6469 18.1974 57.7724 18.424 57.7724 18.6603V21.3332H62.5344V18.6603C62.5344 18.424 62.6599 18.1974 62.8831 18.0303C63.1064 17.8632 63.4092 17.7694 63.725 17.7694H67.2965V14.2055H63.725C63.4092 14.2055 63.1064 14.1116 62.8831 13.9445C62.6599 13.7774 62.5344 13.5508 62.5344 13.3145V10.6416Z" fill="white"/>
<path opacity="0.2" d="M169.681 9.14193C169.681 8.66933 169.932 8.21609 170.379 7.88191C170.825 7.54773 171.431 7.35999 172.062 7.35999H176.825C177.456 7.35999 178.062 7.54773 178.508 7.88191C178.955 8.21609 179.206 8.66933 179.206 9.14193V10.9239H181.587C182.218 10.9239 182.824 11.1116 183.27 11.4458C183.717 11.78 183.968 12.2332 183.968 12.7058V16.2697C183.968 16.7423 183.717 17.1955 183.27 17.5297C182.824 17.8639 182.218 18.0516 181.587 18.0516H179.206V19.8336C179.206 20.3062 178.955 20.7594 178.508 21.0936C178.062 21.4278 177.456 21.6155 176.825 21.6155H172.062C171.431 21.6155 170.825 21.4278 170.379 21.0936C169.932 20.7594 169.681 20.3062 169.681 19.8336V18.0516H167.3C166.669 18.0516 166.063 17.8639 165.617 17.5297C165.17 17.1955 164.919 16.7423 164.919 16.2697V12.7058C164.919 12.2332 165.17 11.78 165.617 11.4458C166.063 11.1116 166.669 10.9239 167.3 10.9239H169.681V9.14193ZM176.825 9.14193H172.062V11.8148C172.062 12.0511 171.937 12.2778 171.714 12.4449C171.49 12.6119 171.188 12.7058 170.872 12.7058H167.3V16.2697H170.872C171.188 16.2697 171.49 16.3636 171.714 16.5307C171.937 16.6977 172.062 16.9244 172.062 17.1607V19.8336H176.825V17.1607C176.825 16.9244 176.95 16.6977 177.173 16.5307C177.396 16.3636 177.699 16.2697 178.015 16.2697H181.587V12.7058H178.015C177.699 12.7058 177.396 12.6119 177.173 12.4449C176.95 12.2778 176.825 12.0511 176.825 11.8148V9.14193Z" fill="white"/>
<path opacity="0.2" d="M248.381 44.2181C248.381 43.7952 248.606 43.3897 249.005 43.0907C249.405 42.7917 249.947 42.6237 250.512 42.6237H254.772C255.337 42.6237 255.879 42.7917 256.279 43.0907C256.678 43.3897 256.903 43.7952 256.903 44.2181V45.8124H259.033C259.598 45.8124 260.14 45.9804 260.54 46.2794C260.939 46.5784 261.164 46.9839 261.164 47.4068V50.5955C261.164 51.0184 260.939 51.4239 260.54 51.7229C260.14 52.0219 259.598 52.1899 259.033 52.1899H256.903V53.7843C256.903 54.2071 256.678 54.6127 256.279 54.9117C255.879 55.2107 255.337 55.3786 254.772 55.3786H250.512C249.947 55.3786 249.405 55.2107 249.005 54.9117C248.606 54.6127 248.381 54.2071 248.381 53.7843V52.1899H246.251C245.686 52.1899 245.144 52.0219 244.744 51.7229C244.345 51.4239 244.12 51.0184 244.12 50.5955V47.4068C244.12 46.9839 244.345 46.5784 244.744 46.2794C245.144 45.9804 245.686 45.8124 246.251 45.8124H248.381V44.2181ZM254.772 44.2181H250.512V46.6096C250.512 46.821 250.399 47.0238 250.2 47.1733C250 47.3228 249.729 47.4068 249.446 47.4068H246.251V50.5955H249.446C249.729 50.5955 250 50.6795 250.2 50.829C250.399 50.9785 250.512 51.1813 250.512 51.3927V53.7843H254.772V51.3927C254.772 51.1813 254.885 50.9785 255.084 50.829C255.284 50.6795 255.555 50.5955 255.838 50.5955H259.033V47.4068H255.838C255.555 47.4068 255.284 47.3228 255.084 47.1733C254.885 47.0238 254.772 46.821 254.772 46.6096V44.2181Z" fill="white"/>
<path opacity="0.2" d="M236.351 68.2274C236.351 67.8045 236.575 67.399 236.975 67.1C237.374 66.801 237.916 66.633 238.481 66.633H242.742C243.307 66.633 243.849 66.801 244.248 67.1C244.648 67.399 244.872 67.8045 244.872 68.2274V69.8217H247.003C247.568 69.8217 248.11 69.9897 248.509 70.2887C248.909 70.5877 249.133 70.9932 249.133 71.4161V74.6048C249.133 75.0277 248.909 75.4332 248.509 75.7322C248.11 76.0312 247.568 76.1992 247.003 76.1992H244.872V77.7936C244.872 78.2164 244.648 78.622 244.248 78.921C243.849 79.22 243.307 79.3879 242.742 79.3879H238.481C237.916 79.3879 237.374 79.22 236.975 78.921C236.575 78.622 236.351 78.2164 236.351 77.7936V76.1992H234.22C233.655 76.1992 233.113 76.0312 232.714 75.7322C232.314 75.4332 232.09 75.0277 232.09 74.6048V71.4161C232.09 70.9932 232.314 70.5877 232.714 70.2887C233.113 69.9897 233.655 69.8217 234.22 69.8217H236.351V68.2274ZM242.742 68.2274H238.481V70.6189C238.481 70.8303 238.369 71.0331 238.169 71.1826C237.969 71.3321 237.698 71.4161 237.416 71.4161H234.22V74.6048H237.416C237.698 74.6048 237.969 74.6888 238.169 74.8383C238.369 74.9878 238.481 75.1906 238.481 75.402V77.7936H242.742V75.402C242.742 75.1906 242.854 74.9878 243.054 74.8383C243.254 74.6888 243.525 74.6048 243.807 74.6048H247.003V71.4161H243.807C243.525 71.4161 243.254 71.3321 243.054 71.1826C242.854 71.0331 242.742 70.8303 242.742 70.6189V68.2274Z" fill="white"/>
<path opacity="0.2" d="M86.2687 0.381423C86.0325 0.494655 85.8662 0.673453 85.8062 0.878485C85.7462 1.08352 85.7975 1.29799 85.9488 1.47471L86.234 1.80789L79.5562 5.00994L84.9758 11.3402L86.3808 10.6665C87.0697 11.144 88.1233 11.2408 88.9478 10.8455C89.7723 10.4501 90.0952 9.6933 89.8034 9.02537L93.5038 7.251C94.1927 7.72852 95.2464 7.82529 96.0708 7.42994C96.8953 7.03459 97.2182 6.27777 96.9264 5.60984L98.3314 4.93613L95.0868 1.14628L94.8954 1.10602L90.2276 0.0546296L90.0043 3.32801e-06L88.0148 0.954003L87.7296 0.62083C87.5782 0.444103 87.3393 0.319596 87.0654 0.274699C86.7914 0.229801 86.5048 0.268191 86.2687 0.381423ZM81.0171 5.24935L90.1572 0.866586L94.4104 1.8231L96.8706 4.69672L96.3559 4.94349C95.6671 4.46598 94.6134 4.36921 93.7889 4.76455C92.9644 5.1599 92.6416 5.91672 92.9333 6.58465L89.2329 8.35902C88.544 7.8815 87.4904 7.78473 86.6659 8.18008C85.8414 8.57543 85.5185 9.33225 85.8103 10.0002L85.2957 10.247L81.0171 5.24935ZM86.7699 3.9007L87.6256 4.90022L86.29 5.54063L86.8605 6.20698L88.1961 5.56656L89.0518 6.56608L89.9422 6.13914L89.0864 5.13962L90.422 4.49921L89.8515 3.83286L88.516 4.47327L87.6602 3.47375L86.7699 3.9007ZM87.2364 8.84643C87.7337 8.60798 88.3786 8.71368 88.6972 9.08583C89.0159 9.45799 88.8746 9.94068 88.3773 10.1791C87.8801 10.4176 87.2351 10.3119 86.9165 9.93972C86.5979 9.56756 86.7391 9.08488 87.2364 8.84643ZM94.3594 5.4309C94.8567 5.19245 95.5016 5.29815 95.8203 5.67031C96.1389 6.04246 95.9976 6.52515 95.5004 6.76359C95.0031 7.00204 94.3581 6.89634 94.0395 6.52419C93.7209 6.15203 93.8621 5.66935 94.3594 5.4309Z" fill="white"/>
<path opacity="0.2" d="M21.5983 20.8059C21.2841 20.9565 21.0628 21.1944 20.983 21.4671C20.9032 21.7399 20.9714 22.0252 21.1727 22.2603L21.5522 22.7035L12.6684 26.9634L19.8783 35.3848L21.7474 34.4885C22.6639 35.1238 24.0656 35.2525 25.1624 34.7266C26.2593 34.2006 26.6888 33.1938 26.3006 32.3052L31.2234 29.9447C32.1399 30.58 33.5416 30.7087 34.6384 30.1828C35.7353 29.6568 36.1648 28.65 35.7767 27.7614L37.6458 26.8652L33.3294 21.8234L33.0747 21.7698L26.8649 20.3711L26.5679 20.2985L23.9212 21.5676L23.5417 21.1244C23.3404 20.8893 23.0226 20.7236 22.6581 20.6639C22.2937 20.6042 21.9124 20.6552 21.5983 20.8059ZM14.6118 27.2819L26.7713 21.4513L32.4295 22.7238L35.7024 26.5467L35.0177 26.875C34.1013 26.2397 32.6996 26.111 31.6027 26.6369C30.5059 27.1629 30.0763 28.1697 30.4645 29.0583L25.5417 31.4188C24.6253 30.7835 23.2235 30.6548 22.1267 31.1807C21.0298 31.7067 20.6003 32.7135 20.9885 33.6021L20.3038 33.9304L14.6118 27.2819ZM22.265 25.4877L23.4034 26.8174L21.6266 27.6694L22.3856 28.5558L24.1623 27.7039L25.3007 29.0336L26.4852 28.4656L25.3468 27.1359L27.1236 26.2839L26.3647 25.3974L24.5879 26.2494L23.4495 24.9197L22.265 25.4877ZM22.8856 32.0672C23.5472 31.75 24.4052 31.8906 24.8291 32.3857C25.2529 32.8808 25.065 33.5229 24.4035 33.8401C23.7419 34.1573 22.8839 34.0167 22.46 33.5216C22.0362 33.0265 22.2241 32.3844 22.8856 32.0672ZM32.3616 27.5234C33.0232 27.2062 33.8812 27.3468 34.3051 27.8419C34.7289 28.337 34.5411 28.9791 33.8795 29.2963C33.218 29.6135 32.3599 29.4729 31.9361 28.9778C31.5122 28.4827 31.7001 27.8406 32.3616 27.5234Z" fill="white"/>
<path opacity="0.2" d="M190.112 33.9739C189.826 34.1108 189.625 34.327 189.553 34.575C189.48 34.8229 189.542 35.0822 189.725 35.2959L190.07 35.6988L181.995 39.5709L188.548 47.2259L190.247 46.4112C191.081 46.9886 192.355 47.1056 193.352 46.6276C194.349 46.1495 194.739 45.2343 194.386 44.4266L198.861 42.2809C199.694 42.8584 200.968 42.9754 201.965 42.4973C202.962 42.0192 203.353 41.1041 203 40.2964L204.699 39.4817L200.775 34.8988L200.544 34.8501L194.899 33.5787L194.629 33.5126L192.223 34.6663L191.878 34.2634C191.695 34.0497 191.407 33.8991 191.075 33.8448C190.744 33.7905 190.397 33.837 190.112 33.9739ZM183.761 39.8604L194.814 34.5606L199.957 35.7172L202.932 39.1922L202.31 39.4906C201.477 38.9131 200.203 38.7961 199.206 39.2742C198.209 39.7523 197.818 40.6675 198.171 41.4752L193.696 43.6208C192.863 43.0434 191.589 42.9264 190.592 43.4044C189.595 43.8825 189.205 44.7977 189.558 45.6054L188.935 45.9038L183.761 39.8604ZM190.718 38.2296L191.753 39.4382L190.138 40.2127L190.828 41.0184L192.443 40.244L193.477 41.4527L194.554 40.9364L193.519 39.7277L195.134 38.9533L194.444 38.1475L192.829 38.922L191.795 37.7133L190.718 38.2296ZM191.282 44.2102C191.883 43.9219 192.663 44.0497 193.049 44.4997C193.434 44.9497 193.263 45.5334 192.662 45.8218C192.06 46.1101 191.281 45.9823 190.895 45.5323C190.51 45.0822 190.681 44.4986 191.282 44.2102ZM199.896 40.08C200.497 39.7916 201.277 39.9194 201.662 40.3695C202.047 40.8195 201.877 41.4032 201.275 41.6915C200.674 41.9799 199.894 41.8521 199.509 41.402C199.124 40.952 199.294 40.3683 199.896 40.08Z" fill="white"/>
<path opacity="0.2" d="M217.181 4.71248C216.895 4.8494 216.694 5.06561 216.621 5.31355C216.549 5.56148 216.611 5.82083 216.794 6.03454L217.139 6.43743L209.064 10.3095L215.617 17.9645L217.316 17.1498C218.149 17.7272 219.423 17.8442 220.42 17.3662C221.417 16.8881 221.808 15.9729 221.455 15.1652L225.93 13.0195C226.763 13.597 228.037 13.714 229.034 13.2359C230.031 12.7578 230.421 11.8427 230.069 11.035L231.768 10.2203L227.844 5.63738L227.612 5.5887L221.968 4.3173L221.698 4.25124L219.292 5.40487L218.947 5.00198C218.764 4.78827 218.475 4.63771 218.144 4.58342C217.813 4.52913 217.466 4.57555 217.181 4.71248ZM210.83 10.599L221.883 5.29916L227.026 6.45583L230.001 9.93077L229.379 10.2292C228.546 9.65174 227.271 9.53472 226.274 10.0128C225.277 10.4909 224.887 11.4061 225.24 12.2138L220.765 14.3594C219.932 13.782 218.658 13.665 217.661 14.143C216.664 14.6211 216.273 15.5363 216.626 16.344L216.004 16.6424L210.83 10.599ZM217.787 8.96817L218.821 10.1768L217.206 10.9513L217.896 11.757L219.511 10.9826L220.546 12.1913L221.623 11.675L220.588 10.4663L222.203 9.69193L221.513 8.88614L219.898 9.66056L218.863 8.45189L217.787 8.96817ZM218.351 14.9488C218.952 14.6605 219.732 14.7883 220.117 15.2383C220.503 15.6883 220.332 16.272 219.731 16.5604C219.129 16.8487 218.349 16.7209 217.964 16.2709C217.579 15.8208 217.749 15.2372 218.351 14.9488ZM226.964 10.8186C227.566 10.5302 228.346 10.658 228.731 11.1081C229.116 11.5581 228.945 12.1418 228.344 12.4301C227.743 12.7185 226.963 12.5907 226.577 12.1406C226.192 11.6906 226.363 11.1069 226.964 10.8186Z" fill="white"/>
<path opacity="0.2" d="M43.6542 63.5725C43.3401 63.7231 43.1188 63.961 43.039 64.2338C42.9592 64.5065 43.0274 64.7918 43.2287 65.0269L43.6081 65.4702L34.7244 69.73L41.9342 78.1514L43.8034 77.2552C44.7198 77.8904 46.1215 78.0192 47.2184 77.4932C48.3152 76.9673 48.7448 75.9604 48.3566 75.0719L53.2794 72.7114C54.1959 73.3466 55.5976 73.4753 56.6944 72.9494C57.7913 72.4235 58.2208 71.4166 57.8326 70.5281L59.7018 69.6318L55.3853 64.59L55.1307 64.5365L48.9209 63.1378L48.6239 63.0651L45.9772 64.3342L45.5977 63.891C45.3964 63.6559 45.0786 63.4902 44.7141 63.4305C44.3496 63.3708 43.9684 63.4219 43.6542 63.5725ZM36.6678 70.0485L48.8273 64.2179L54.4854 65.4904L57.7583 69.3133L57.0737 69.6416C56.1573 69.0063 54.7555 68.8776 53.6587 69.4035C52.5618 69.9295 52.1323 70.9363 52.5205 71.8249L47.5977 74.1854C46.6812 73.5501 45.2795 73.4214 44.1827 73.9473C43.0858 74.4733 42.6563 75.4801 43.0445 76.3687L42.3598 76.697L36.6678 70.0485ZM44.321 68.2543L45.4594 69.584L43.6826 70.436L44.4416 71.3224L46.2183 70.4705L47.3567 71.8002L48.5412 71.2322L47.4028 69.9025L49.1796 69.0505L48.4206 68.1641L46.6439 69.016L45.5055 67.6863L44.321 68.2543ZM44.9416 74.8338C45.6031 74.5166 46.4612 74.6572 46.885 75.1523C47.3089 75.6474 47.121 76.2895 46.4595 76.6067C45.7979 76.924 44.9399 76.7833 44.516 76.2882C44.0922 75.7932 44.2801 75.151 44.9416 74.8338ZM54.4176 70.29C55.0792 69.9728 55.9372 70.1134 56.3611 70.6085C56.7849 71.1036 56.597 71.7457 55.9355 72.0629C55.2739 72.3801 54.4159 72.2395 53.9921 71.7444C53.5682 71.2494 53.7561 70.6072 54.4176 70.29Z" fill="white"/>
<path opacity="0.2" d="M157.218 40.2273L155.639 40.8162L154.804 39.5625C154.207 38.6663 152.776 38.2901 151.575 38.7381L147.533 40.2465C146.332 40.6947 145.872 41.776 146.469 42.6723L147.305 43.926L145.726 44.5151C144.65 44.9165 144.193 45.8632 144.727 46.666L148.404 52.1853C148.939 52.9878 150.244 53.3129 151.32 52.9115L162.811 48.6238C163.887 48.2225 164.326 47.2467 163.791 46.444L160.114 40.9249C159.579 40.1222 158.293 39.826 157.218 40.2273ZM147.752 42.1939C147.528 41.8583 147.723 41.3739 148.172 41.2061L152.215 39.6977C152.663 39.5304 153.298 39.7053 153.522 40.041L154.357 41.2947L148.587 43.4476L147.752 42.1939ZM158.514 46.3332L156.27 47.1705L157.389 48.8498L154.824 49.8066L153.706 48.1273L151.462 48.9646L150.183 47.0454L152.427 46.2081L151.308 44.5288L153.873 43.572L154.992 45.2513L157.235 44.414L158.514 46.3332Z" fill="white"/>
<path opacity="0.2" d="M125.136 4.21342L123.558 4.80236L122.722 3.54865C122.125 2.65239 120.695 2.27617 119.494 2.72422L115.452 4.23257C114.25 4.68085 113.791 5.76214 114.388 6.65841L115.223 7.91212L113.645 8.50118C112.569 8.90257 112.111 9.84936 112.646 10.6521L116.323 16.1714C116.858 16.9739 118.162 17.299 119.238 16.8976L130.73 12.6099C131.805 12.2086 132.244 11.2328 131.709 10.4301L128.033 4.91097C127.498 4.10827 126.212 3.81214 125.136 4.21342ZM115.67 6.17998C115.447 5.84436 115.641 5.35997 116.091 5.19216L120.133 3.68381C120.582 3.51648 121.217 3.69145 121.44 4.02707L122.275 5.28078L116.505 7.43369L115.67 6.17998ZM126.433 10.3193L124.189 11.1566L125.307 12.8359L122.743 13.7927L121.624 12.1134L119.38 12.9507L118.102 11.0315L120.346 10.1942L119.227 8.51495L121.791 7.5581L122.91 9.23739L125.154 8.40015L126.433 10.3193Z" fill="white"/>
<path opacity="0.2" d="M127.138 64.7056L125.354 65.3713L124.41 63.9542C123.735 62.9411 122.118 62.5159 120.76 63.0223L116.191 64.7273C114.833 65.234 114.314 66.4562 114.989 67.4693L115.933 68.8864L114.148 69.5523C112.932 70.006 112.415 71.0762 113.02 71.9835L117.176 78.2223C117.78 79.1294 119.255 79.4969 120.471 79.0432L133.461 74.1965C134.676 73.743 135.172 72.6399 134.568 71.7326L130.412 65.4941C129.807 64.5868 128.353 64.252 127.138 64.7056ZM116.438 66.9285C116.185 66.5492 116.405 66.0016 116.914 65.8119L121.483 64.107C121.99 63.9178 122.708 64.1156 122.96 64.495L123.904 65.9121L117.382 68.3457L116.438 66.9285ZM128.603 71.6074L126.067 72.5538L127.332 74.452L124.433 75.5336L123.168 73.6354L120.632 74.5818L119.187 72.4124L121.723 71.466L120.458 69.5679L123.357 68.4863L124.622 70.3845L127.158 69.4381L128.603 71.6074Z" fill="white"/>
<path opacity="0.2" d="M334.389 64.6503L332.091 65.1177L331.428 63.2919C330.954 61.9867 329.192 61.2052 327.443 61.5608L321.556 62.758C319.807 63.1138 318.816 64.455 319.29 65.7602L319.953 67.586L317.654 68.0535C316.087 68.3721 315.147 69.5354 315.571 70.7044L318.49 78.7423C318.914 79.9109 320.527 80.5999 322.094 80.2813L338.829 76.8781C340.395 76.5596 341.322 75.3541 340.897 74.1852L337.979 66.1477C337.554 64.9787 335.955 64.3318 334.389 64.6503ZM321.158 65.3805C320.98 64.8917 321.409 64.2887 322.064 64.1555L327.951 62.9583C328.604 62.8255 329.383 63.1829 329.56 63.6717L330.223 65.4975L321.82 67.2062L321.158 65.3805ZM333.948 72.9936L330.68 73.6582L331.568 76.1037L327.833 76.8632L326.945 74.4176L323.677 75.0821L322.663 72.2872L325.93 71.6227L325.043 69.1771L328.777 68.4177L329.665 70.8632L332.933 70.1987L333.948 72.9936Z" fill="white"/>
<path opacity="0.2" d="M16.878 61.6644L14.7827 62.4462L13.6739 60.7819C12.8813 59.5921 10.9823 59.0927 9.3882 59.6875L4.02173 61.6898C2.42681 62.2849 1.8173 63.7203 2.60993 64.9101L3.71868 66.5744L1.6229 67.3564C0.194794 67.8893 -0.412537 69.1462 0.297352 70.2117L5.17853 77.5387C5.88821 78.604 7.62041 79.0357 9.04852 78.5028L24.3036 72.8108C25.7313 72.2781 26.3141 70.9827 25.6042 69.9171L20.7232 62.5904C20.0133 61.5248 18.3057 61.1317 16.878 61.6644ZM4.31208 64.275C4.01527 63.8295 4.27334 63.1865 4.87037 62.9637L10.2368 60.9613C10.8322 60.7392 11.675 60.9715 11.9718 61.417L13.0805 63.0813L5.42083 65.9393L4.31208 64.275ZM18.5991 69.7701L15.6204 70.8815L17.1055 73.1108L13.7012 74.381L12.2161 72.1517L9.23729 73.2632L7.54 70.7154L10.5188 69.604L9.03365 67.3747L12.438 66.1045L13.9231 68.3338L16.9018 67.2223L18.5991 69.7701Z" fill="white"/>
<g opacity="0.2">
<path d="M199.541 96.7549C198.388 96.7549 197.283 96.2972 196.469 95.4825C195.654 94.6678 195.196 93.5628 195.196 92.4106V88.9351C195.196 88.7047 195.288 88.4837 195.451 88.3207C195.614 88.1578 195.835 88.0662 196.065 88.0662H196.934C197.164 88.0662 197.385 87.9747 197.548 87.8117C197.711 87.6488 197.803 87.4278 197.803 87.1974C197.803 86.9669 197.711 86.7459 197.548 86.583C197.385 86.42 197.164 86.3285 196.934 86.3285H196.065C195.374 86.3285 194.711 86.6031 194.222 87.0919C193.733 87.5808 193.459 88.2438 193.459 88.9351V92.4106C193.46 93.3922 193.699 94.3588 194.156 95.2275C194.613 96.0962 195.274 96.841 196.083 97.3979C196.859 98.0826 197.489 98.9176 197.934 99.8524C198.379 100.787 198.63 101.803 198.672 102.837C198.672 104.45 199.313 105.997 200.453 107.138C201.594 108.278 203.141 108.919 204.754 108.919C206.367 108.919 207.914 108.278 209.055 107.138C210.195 105.997 210.836 104.45 210.836 102.837V101.847C211.655 101.635 212.369 101.132 212.844 100.432C213.318 99.7319 213.521 98.8826 213.415 98.0435C213.308 97.2043 212.899 96.4328 212.265 95.8736C211.63 95.3144 210.813 95.0059 209.967 95.0059C209.121 95.0059 208.304 95.3144 207.67 95.8736C207.035 96.4328 206.626 97.2043 206.519 98.0435C206.413 98.8826 206.616 99.7319 207.091 100.432C207.565 101.132 208.279 101.635 209.098 101.847V102.837C209.098 103.989 208.641 105.094 207.826 105.909C207.011 106.724 205.906 107.181 204.754 107.181C203.602 107.181 202.497 106.724 201.682 105.909C200.867 105.094 200.41 103.989 200.41 102.837C200.453 101.801 200.707 100.785 201.155 99.8503C201.603 98.9153 202.236 98.0811 203.016 97.3979C203.821 96.8391 204.479 96.0935 204.933 95.2249C205.387 94.3563 205.624 93.3906 205.623 92.4106V88.9351C205.623 88.2438 205.348 87.5808 204.859 87.0919C204.37 86.6031 203.707 86.3285 203.016 86.3285H202.147C201.917 86.3285 201.696 86.42 201.533 86.583C201.37 86.7459 201.278 86.9669 201.278 87.1974C201.278 87.4278 201.37 87.6488 201.533 87.8117C201.696 87.9747 201.917 88.0662 202.147 88.0662H203.016C203.247 88.0662 203.468 88.1578 203.631 88.3207C203.793 88.4837 203.885 88.7047 203.885 88.9351V92.4106C203.885 92.9811 203.773 93.546 203.554 94.0731C203.336 94.6002 203.016 95.0791 202.613 95.4825C202.209 95.8859 201.73 96.2059 201.203 96.4242C200.676 96.6426 200.111 96.7549 199.541 96.7549ZM209.967 100.23C209.506 100.23 209.064 100.047 208.738 99.7215C208.412 99.3956 208.229 98.9536 208.229 98.4927C208.229 98.0318 208.412 97.5898 208.738 97.2639C209.064 96.938 209.506 96.7549 209.967 96.7549C210.428 96.7549 210.87 96.938 211.196 97.2639C211.522 97.5898 211.705 98.0318 211.705 98.4927C211.705 98.9536 211.522 99.3956 211.196 99.7215C210.87 100.047 210.428 100.23 209.967 100.23Z" fill="white"/>
</g>
<g opacity="0.2">
<path d="M141.66 35.6637C140.597 35.6637 139.577 35.2412 138.825 34.4891C138.073 33.7371 137.65 32.717 137.65 31.6535V28.4453C137.65 28.2326 137.735 28.0286 137.885 27.8782C138.036 27.7278 138.24 27.6433 138.452 27.6433H139.254C139.467 27.6433 139.671 27.5588 139.821 27.4084C139.972 27.258 140.056 27.054 140.056 26.8413C140.056 26.6286 139.972 26.4246 139.821 26.2741C139.671 26.1237 139.467 26.0392 139.254 26.0392H138.452C137.814 26.0392 137.202 26.2927 136.751 26.744C136.3 27.1952 136.046 27.8072 136.046 28.4453V31.6535C136.047 32.5596 136.268 33.4519 136.69 34.2537C137.112 35.0556 137.722 35.7431 138.468 36.2572C139.185 36.8892 139.767 37.6599 140.177 38.5228C140.588 39.3858 140.82 40.323 140.858 41.2779C140.858 42.7669 141.45 44.1949 142.503 45.2478C143.556 46.3007 144.984 46.8922 146.473 46.8922C147.962 46.8922 149.39 46.3007 150.443 45.2478C151.495 44.1949 152.087 42.7669 152.087 41.2779V40.3636C152.843 40.1684 153.502 39.7041 153.94 39.0579C154.378 38.4116 154.566 37.6277 154.467 36.8531C154.369 36.0785 153.992 35.3663 153.406 34.8501C152.82 34.334 152.066 34.0492 151.285 34.0492C150.504 34.0492 149.75 34.334 149.164 34.8501C148.578 35.3663 148.201 36.0785 148.102 36.8531C148.004 37.6277 148.191 38.4116 148.63 39.0579C149.068 39.7041 149.727 40.1684 150.483 40.3636V41.2779C150.483 42.3415 150.06 43.3615 149.308 44.1135C148.556 44.8656 147.536 45.2881 146.473 45.2881C145.409 45.2881 144.389 44.8656 143.637 44.1135C142.885 43.3615 142.463 42.3415 142.463 41.2779C142.503 40.3218 142.737 39.3839 143.151 38.5209C143.564 37.6579 144.149 36.8878 144.869 36.2572C145.612 35.7413 146.219 35.0531 146.638 34.2513C147.057 33.4495 147.275 32.5581 147.275 31.6535V28.4453C147.275 27.8072 147.021 27.1952 146.57 26.744C146.119 26.2927 145.507 26.0392 144.869 26.0392H144.067C143.854 26.0392 143.65 26.1237 143.499 26.2741C143.349 26.4246 143.265 26.6286 143.265 26.8413C143.265 27.054 143.349 27.258 143.499 27.4084C143.65 27.5588 143.854 27.6433 144.067 27.6433H144.869C145.081 27.6433 145.285 27.7278 145.436 27.8782C145.586 28.0286 145.671 28.2326 145.671 28.4453V31.6535C145.671 32.1801 145.567 32.7016 145.365 33.1881C145.164 33.6746 144.868 34.1167 144.496 34.4891C144.124 34.8615 143.682 35.1569 143.195 35.3584C142.709 35.5599 142.187 35.6637 141.66 35.6637ZM151.285 38.8718C150.859 38.8718 150.451 38.7028 150.151 38.402C149.85 38.1012 149.681 37.6932 149.681 37.2677C149.681 36.8423 149.85 36.4343 150.151 36.1335C150.451 35.8327 150.859 35.6637 151.285 35.6637C151.71 35.6637 152.118 35.8327 152.419 36.1335C152.72 36.4343 152.889 36.8423 152.889 37.2677C152.889 37.6932 152.72 38.1012 152.419 38.402C152.118 38.7028 151.71 38.8718 151.285 38.8718Z" fill="white"/>
</g>
<g opacity="0.2">
<path d="M269.017 30.7861C267.466 30.7861 265.979 30.17 264.882 29.0733C263.785 27.9765 263.169 26.489 263.169 24.938V20.2594C263.169 19.9492 263.292 19.6517 263.512 19.4324C263.731 19.213 264.028 19.0898 264.339 19.0898H265.508C265.818 19.0898 266.116 18.9666 266.335 18.7472C266.555 18.5279 266.678 18.2304 266.678 17.9202C266.678 17.61 266.555 17.3124 266.335 17.0931C266.116 16.8738 265.818 16.7505 265.508 16.7505H264.339C263.408 16.7505 262.516 17.1202 261.857 17.7783C261.199 18.4363 260.83 19.3288 260.83 20.2594V24.938C260.831 26.2593 261.153 27.5606 261.769 28.73C262.384 29.8994 263.274 30.902 264.362 31.6517C265.407 32.5734 266.255 33.6974 266.854 34.9558C267.453 36.2142 267.791 37.581 267.848 38.9736C267.848 41.145 268.71 43.2275 270.246 44.763C271.781 46.2984 273.864 47.161 276.035 47.161C278.206 47.161 280.289 46.2984 281.824 44.763C283.36 43.2275 284.222 41.145 284.222 38.9736V37.6402C285.325 37.3555 286.286 36.6785 286.925 35.736C287.564 34.7936 287.838 33.6504 287.694 32.5207C287.551 31.3911 287 30.3525 286.146 29.5998C285.291 28.847 284.192 28.4317 283.053 28.4317C281.914 28.4317 280.814 28.847 279.96 29.5998C279.106 30.3525 278.555 31.3911 278.412 32.5207C278.268 33.6504 278.541 34.7936 279.181 35.736C279.82 36.6785 280.781 37.3555 281.883 37.6402V38.9736C281.883 40.5246 281.267 42.0121 280.17 43.1089C279.074 44.2056 277.586 44.8218 276.035 44.8218C274.484 44.8218 272.996 44.2056 271.9 43.1089C270.803 42.0121 270.187 40.5246 270.187 38.9736C270.246 37.5793 270.588 36.2114 271.191 34.9529C271.794 33.6944 272.646 32.5713 273.696 31.6517C274.78 30.8994 275.665 29.8957 276.276 28.7264C276.887 27.5572 277.206 26.2573 277.205 24.938V20.2594C277.205 19.3288 276.835 18.4363 276.177 17.7783C275.519 17.1202 274.626 16.7505 273.696 16.7505H272.526C272.216 16.7505 271.918 16.8738 271.699 17.0931C271.48 17.3124 271.356 17.61 271.356 17.9202C271.356 18.2304 271.48 18.5279 271.699 18.7472C271.918 18.9666 272.216 19.0898 272.526 19.0898H273.696C274.006 19.0898 274.303 19.213 274.523 19.4324C274.742 19.6517 274.865 19.9492 274.865 20.2594V24.938C274.865 25.706 274.714 26.4664 274.42 27.176C274.126 27.8855 273.696 28.5302 273.152 29.0733C272.609 29.6163 271.965 30.0471 271.255 30.341C270.546 30.6349 269.785 30.7861 269.017 30.7861ZM283.053 35.4647C282.432 35.4647 281.837 35.2182 281.399 34.7795C280.96 34.3408 280.714 33.7458 280.714 33.1254C280.714 32.505 280.96 31.91 281.399 31.4713C281.837 31.0326 282.432 30.7861 283.053 30.7861C283.673 30.7861 284.268 31.0326 284.707 31.4713C285.146 31.91 285.392 32.505 285.392 33.1254C285.392 33.7458 285.146 34.3408 284.707 34.7795C284.268 35.2182 283.673 35.4647 283.053 35.4647Z" fill="white"/>
</g>
</g>
<defs>
<clipPath id="clip0_8479_57269">
<rect width="22" height="22" fill="white" transform="translate(216.049 35.4635) scale(1.00254)"/>
</clipPath>
<clipPath id="clip1_8479_57269">
<rect width="21" height="21" fill="white" transform="translate(68.675 89.6011) scale(1.00254)"/>
</clipPath>
<clipPath id="clip2_8479_57269">
<rect width="21" height="21" fill="white" transform="translate(79.703 30.4509) scale(1.00254)"/>
</clipPath>
<clipPath id="clip3_8479_57269">
<rect width="22" height="22" fill="white" transform="translate(272.192 86.5933) scale(1.00254)"/>
</clipPath>
<clipPath id="clip4_8479_57269">
<rect width="24" height="24" fill="white" transform="translate(156.899 86.5933) scale(1.00254)"/>
</clipPath>
</defs>
</svg>
