<svg width="20" height="20" viewBox="0 0 20 20" fill="none" xmlns="http://www.w3.org/2000/svg">
<g clip-path="url(#clip0_0_6751)">
<path fill-rule="evenodd" clip-rule="evenodd" d="M15.807 0.939045C16.203 1.30605 16.462 2.07205 16.513 2.53405C17.103 2.90005 17.801 3.63805 17.862 5.02805C18.915 5.75905 19.715 7.11105 18.716 9.08805C19.296 9.62805 19.943 11.276 19.111 12.604C18.142 14.156 16.036 14.264 13.937 13.987C14.497 15.552 14.707 16.996 13.821 18.475C12.94 19.787 11.724 20 11.308 20C10.17 20 9.39 19.021 9.074 17.717C8.959 17.353 8.828 16.493 8.777 16.267C8.512 14.827 7.621 13.675 6.107 12.814C5.43344 12.4272 4.72207 12.1102 3.984 11.868H1.644C1.123 11.868 0.5 11.341 0.5 10.703V3.06705C0.574 2.34505 0.975 1.98505 1.702 1.98505H4.812C6.176 1.67505 7.536 1.34305 8.891 0.990045C10.2 0.637045 10.487 0.520045 11.403 0.268045C13.456 -0.263955 14.881 0.0280454 15.807 0.938045V0.939045ZM13.425 1.36305C12.606 1.36305 11.569 1.61505 11.109 1.76205C10.947 1.81305 10.663 1.89705 10.364 1.98305L10.064 2.07005L9.776 2.15205L9.216 2.31005C9.216 2.31005 7.806 2.68805 5.043 3.33005C4.94 3.34205 4.885 3.35005 4.877 3.35205V10.732C6.388 11.314 7.565 12.02 8.407 12.85C9.671 14.094 10.022 15.218 10.229 16.657C10.347 17.38 10.538 17.963 10.826 18.362C10.9087 18.4816 11.0291 18.57 11.168 18.613C11.315 18.66 11.518 18.663 11.951 18.429C12.384 18.193 12.941 17.576 13.046 16.657C13.116 15.764 12.876 14.99 12.554 14.176C12.4428 13.8987 12.3238 13.6246 12.197 13.354C11.979 12.941 12.307 12.255 12.983 12.404C13.889 12.659 16.137 13.004 17.405 12.404C18.142 11.977 18.325 11.288 17.952 10.338C17.8287 10.1203 17.6599 9.93163 17.457 9.78505C17.287 9.68305 16.955 9.24105 17.354 8.74005C17.75 8.10505 18.329 6.81205 16.864 6.00605C16.7618 5.94985 16.6764 5.86741 16.6166 5.76722C16.5568 5.66702 16.5249 5.55271 16.524 5.43605C16.504 5.16205 16.548 4.14605 15.794 3.69205C15.614 3.59505 15.397 3.51505 15.274 3.28205C15.196 3.12805 15.171 2.75405 15.171 2.75405C15.068 2.12205 14.926 1.53205 13.425 1.36305ZM3.519 3.34805H1.861V10.505H3.519V3.34805Z" fill="#75818F"/>
</g>
<defs>
<clipPath id="clip0_0_6751">
<rect width="20" height="20" fill="white"/>
</clipPath>
</defs>
</svg>
