<svg width="24" height="24" viewBox="0 0 24 24" fill="none" xmlns="http://www.w3.org/2000/svg">
<g clip-path="url(#clip0_8479_56917)">
<path d="M21 16H19V19H16V21H19V24H21V21H24V19H21V16Z" fill="#75818F"/>
<path d="M9.759 8.34899C9.548 8.10199 9.232 7.97199 8.905 8.00399C8.582 8.03499 8.293 8.22099 8.132 8.50399L4.132 15.504C3.955 15.814 3.956 16.194 4.135 16.502C4.314 16.81 4.644 17 5 17H15C15.391 17 15.745 16.772 15.908 16.418C16.071 16.063 16.013 15.646 15.759 15.349L9.759 8.34899Z" fill="#75818F"/>
<path d="M2 2H21V14H23V1C23 0.448 22.553 0 22 0H1C0.447 0 0 0.448 0 1V22C0 22.552 0.447 23 1 23H14V21H2V2Z" fill="#75818F"/>
<path d="M16 9C17.1046 9 18 8.10457 18 7C18 5.89543 17.1046 5 16 5C14.8954 5 14 5.89543 14 7C14 8.10457 14.8954 9 16 9Z" fill="#75818F"/>
</g>
<defs>
<clipPath id="clip0_8479_56917">
<rect width="24" height="24" fill="white"/>
</clipPath>
</defs>
</svg>
