<svg width="24" height="24" viewBox="0 0 24 24" fill="none" xmlns="http://www.w3.org/2000/svg">
<path d="M5.14507 11.596V17.3216H7.69657L7.82541 17.336C10.1942 17.8608 11.7638 18.2392 12.5461 18.4736C13.5852 18.7848 13.9726 18.8608 14.6774 18.9056C15.2046 18.94 15.8033 18.7472 16.0761 18.4832C16.2269 18.3376 16.3397 18.0384 16.3843 17.5744C16.3936 17.4771 16.4302 17.384 16.4903 17.3047C16.5505 17.2255 16.632 17.1631 16.7262 17.124C16.9359 17.0376 17.1102 16.8968 17.2559 16.692C17.3906 16.5048 17.4782 16.156 17.4942 15.6512C17.497 15.5584 17.5247 15.4678 17.5747 15.388C17.6246 15.3083 17.6952 15.2419 17.7797 15.1952C18.2697 14.9256 18.5123 14.6216 18.5628 14.2648C18.6184 13.8704 18.4836 13.4264 18.1308 12.9208C18.048 12.8023 18.0172 12.6577 18.0449 12.5178C18.0725 12.378 18.1565 12.2539 18.279 12.172C18.6167 11.9464 18.8019 11.6328 18.8483 11.188C18.9224 10.4792 18.4466 9.95522 17.3696 9.85042C16.4103 9.76029 15.4418 9.83701 14.5115 10.0768C14.406 10.103 14.2948 10.1 14.191 10.0682C14.0872 10.0364 13.9951 9.97712 13.9256 9.89728C13.856 9.81744 13.812 9.7204 13.7985 9.61757C13.7851 9.51474 13.8028 9.4104 13.8497 9.31682C14.2707 8.47042 14.5048 7.77202 14.5595 7.23122C14.6311 6.51362 14.4568 5.99362 14.0492 5.56482C13.7402 5.24002 13.2459 5.05442 13.0606 5.09282C12.8164 5.14242 12.6573 5.27682 12.4501 5.74722C12.328 6.02562 12.2691 6.26242 12.168 6.81522C12.0712 7.34002 12.0181 7.57682 11.9078 7.88722C11.5752 8.82802 10.7592 9.80322 9.66368 10.476C8.89586 10.947 8.06372 11.3158 7.19048 11.572C7.13593 11.588 7.07916 11.5961 7.02207 11.596H5.14507ZM5.1097 18.412C4.83771 18.4192 4.5935 18.3616 4.38888 18.2256C4.12783 18.052 4.00489 17.7784 4.00236 17.4632L4.00489 11.6048C3.97626 11.2928 4.0731 11.0064 4.30214 10.7936C4.51688 10.5936 4.79729 10.4992 5.0937 10.5056H6.93365C7.67793 10.2803 8.38752 9.96236 9.0439 9.56002C9.92641 9.01762 10.5765 8.24002 10.8249 7.53922C10.91 7.29762 10.9554 7.09762 11.0413 6.62722C11.1575 5.99602 11.2299 5.70242 11.3967 5.32482C11.7419 4.53922 12.195 4.15521 12.8198 4.02641C13.4345 3.90001 14.3296 4.23681 14.8955 4.83202C15.5229 5.49122 15.7999 6.31602 15.6972 7.33522C15.6534 7.77362 15.5254 8.26402 15.3149 8.81042C16.0338 8.71088 16.7629 8.69584 17.4858 8.76562C19.1758 8.92962 20.1249 9.97522 19.9868 11.2968C19.9261 11.8664 19.7089 12.3504 19.3392 12.7304C19.6499 13.2992 19.7737 13.8616 19.6962 14.4104C19.607 15.0424 19.2365 15.5688 18.6201 15.9776C18.5721 16.532 18.4382 16.9744 18.2007 17.3056C18.0136 17.5732 17.7695 17.8005 17.4841 17.9728C17.3931 18.52 17.202 18.948 16.8896 19.2488C16.3717 19.7496 15.4462 20.048 14.6008 19.9936C13.7983 19.9424 13.3234 19.8496 12.2034 19.5136C11.4649 19.292 9.93567 18.924 7.63089 18.412H5.10886H5.1097ZM6.54208 11.3472C6.54186 11.2757 6.55651 11.2047 6.58518 11.1386C6.61386 11.0724 6.65601 11.0122 6.7092 10.9615C6.76239 10.9108 6.82559 10.8706 6.89518 10.8432C6.96476 10.8157 7.03936 10.8016 7.1147 10.8016C7.18989 10.8018 7.26431 10.8161 7.3337 10.8436C7.40309 10.8712 7.46609 10.9114 7.5191 10.9621C7.57212 11.0128 7.61411 11.0728 7.64268 11.1389C7.67126 11.205 7.68585 11.2758 7.68563 11.3472V17.4896C7.68574 17.5611 7.67104 17.6318 7.64236 17.6979C7.61369 17.7639 7.5716 17.8239 7.51851 17.8745C7.46541 17.9251 7.40235 17.9653 7.33292 17.9927C7.26349 18.0202 7.18905 18.0343 7.11385 18.0344C7.03866 18.0343 6.96422 18.0202 6.89479 17.9927C6.82536 17.9653 6.76229 17.9251 6.7092 17.8745C6.65611 17.8239 6.61402 17.7639 6.58535 17.6979C6.55667 17.6318 6.54197 17.5611 6.54208 17.4896V11.3472Z" fill="#75818F"/>
</svg>
