<svg width="24" height="165" viewBox="0 0 24 165" fill="none" xmlns="http://www.w3.org/2000/svg">
<rect width="24" height="24" rx="5" fill="#DDE1E7" fill-opacity="0.2"/>
<path d="M7.5 6.75C7.30109 6.75 7.11032 6.82902 6.96967 6.96967C6.82902 7.11032 6.75 7.30109 6.75 7.5V16.5C6.75 16.6989 6.82902 16.8897 6.96967 17.0303C7.11032 17.171 7.30109 17.25 7.5 17.25H16.5C16.6989 17.25 16.8897 17.171 17.0303 17.0303C17.171 16.8897 17.25 16.6989 17.25 16.5V7.5C17.25 7.30109 17.171 7.11032 17.0303 6.96967C16.8897 6.82902 16.6989 6.75 16.5 6.75H13.125C12.9261 6.75 12.7353 6.82902 12.5947 6.96967C12.454 7.11032 12.375 7.30109 12.375 7.5V10.875H13.875C13.9493 10.8749 14.0219 10.8968 14.0837 10.938C14.1455 10.9792 14.1937 11.0378 14.2221 11.1064C14.2505 11.175 14.258 11.2505 14.2434 11.3233C14.2289 11.3962 14.1931 11.4631 14.1405 11.5155L12.2655 13.3905C12.2307 13.4254 12.1893 13.4531 12.1437 13.472C12.0982 13.4909 12.0493 13.5007 12 13.5007C11.9507 13.5007 11.9018 13.4909 11.8563 13.472C11.8107 13.4531 11.7693 13.4254 11.7345 13.3905L9.8595 11.5155C9.80692 11.4631 9.7711 11.3962 9.75657 11.3233C9.74205 11.2505 9.74947 11.175 9.77791 11.1064C9.80635 11.0378 9.85452 10.9792 9.91631 10.938C9.9781 10.8968 10.0507 10.8749 10.125 10.875H11.625V7.5C11.625 7.10218 11.783 6.72064 12.0643 6.43934C12.3456 6.15804 12.7272 6 13.125 6H16.5C16.8978 6 17.2794 6.15804 17.5607 6.43934C17.842 6.72064 18 7.10218 18 7.5V16.5C18 16.8978 17.842 17.2794 17.5607 17.5607C17.2794 17.842 16.8978 18 16.5 18H7.5C7.10218 18 6.72064 17.842 6.43934 17.5607C6.15804 17.2794 6 16.8978 6 16.5V7.5C6 7.10218 6.15804 6.72064 6.43934 6.43934C6.72064 6.15804 7.10218 6 7.5 6H9.375C9.47446 6 9.56984 6.03951 9.64016 6.10983C9.71049 6.18016 9.75 6.27554 9.75 6.375C9.75 6.47446 9.71049 6.56984 9.64016 6.64017C9.56984 6.71049 9.47446 6.75 9.375 6.75H7.5Z" fill="black"/>
<rect y="47" width="24" height="24" rx="5" fill="#DDE1E7" fill-opacity="0.2"/>
<path d="M16.2635 64.8218L15.3284 63.901C14.8435 64.2178 14.3266 64.4604 13.7777 64.6287C13.2283 64.797 12.6568 64.8812 12.0631 64.8812C11.2418 64.8812 10.47 64.7251 9.7477 64.4131C9.02537 64.1014 8.39705 63.6782 7.86273 63.1436C7.32841 62.6089 6.9055 61.9802 6.59401 61.2574C6.28213 60.5347 6.12618 59.7624 6.12618 58.9406C6.12618 58.3465 6.21029 57.7747 6.3785 57.225C6.54671 56.6756 6.78914 56.1584 7.10577 55.6733L6.17071 54.7376C6.06187 54.6287 6.00507 54.4925 6.00032 54.3289C5.99518 54.1657 6.05197 54.0248 6.17071 53.9059C6.28945 53.7871 6.43055 53.7277 6.59401 53.7277C6.75708 53.7277 6.89798 53.7871 7.01672 53.9059L17.1095 63.9901C17.2183 64.099 17.2753 64.2352 17.2804 64.3988C17.2852 64.562 17.2282 64.703 17.1095 64.8218C16.9907 64.9406 16.8498 65 16.6868 65C16.5233 65 16.3822 64.9406 16.2635 64.8218ZM12.0631 63.6931C12.4886 63.6931 12.9018 63.6386 13.3027 63.5297C13.7033 63.4208 14.0915 63.2574 14.4675 63.0396L7.96662 56.5347C7.74894 56.9109 7.58567 57.2994 7.47683 57.7002C7.36799 58.1014 7.31356 58.5149 7.31356 58.9406C7.31356 60.2574 7.77625 61.3788 8.70161 62.3048C9.62658 63.2303 10.7471 63.6931 12.0631 63.6931ZM17.0204 62.2079L16.1596 61.3465C16.3772 60.9703 16.5405 60.5816 16.6494 60.1804C16.7582 59.7796 16.8126 59.3663 16.8126 58.9406C16.8126 57.6238 16.3501 56.5024 15.4252 55.5764C14.4998 54.6509 13.3791 54.1881 12.0631 54.1881C11.6376 54.1881 11.2246 54.2426 10.8241 54.3515C10.4231 54.4604 10.0346 54.6238 9.65864 54.8416L8.79779 53.9802C9.28264 53.6634 9.79974 53.4208 10.3491 53.2525C10.8981 53.0842 11.4694 53 12.0631 53C12.8844 53 13.6562 53.1558 14.3785 53.4675C15.1008 53.7796 15.7291 54.203 16.2635 54.7376C16.7978 55.2723 17.2207 55.901 17.5322 56.6238C17.8441 57.3465 18 58.1188 18 58.9406C18 59.5347 17.9159 60.1063 17.7477 60.6556C17.5795 61.2053 17.337 61.7228 17.0204 62.2079Z" fill="black"/>
<rect y="94" width="24" height="24" rx="5" fill="#DDE1E7" fill-opacity="0.2"/>
<path d="M18.7816 102.873L15.1397 99.2333C14.9919 99.0856 14.7895 99 14.5872 99H9.42008C9.21775 99 9.01542 99.0856 8.87535 99.2256L5.22567 102.873C5.0856 103.013 5 103.216 5 103.418V108.574C5 108.784 5.0856 108.979 5.22567 109.127L8.86757 112.767C9.01542 112.914 9.21775 113 9.42008 113H14.5794C14.7895 113 14.9841 112.914 15.1319 112.774L18.7738 109.134C18.8463 109.062 18.9036 108.976 18.9424 108.881C18.9811 108.786 19.0005 108.685 18.9995 108.582V103.418C19.0073 103.216 18.9217 103.013 18.7816 102.873ZM17.4509 108.256L14.2604 111.444H9.74692L6.55637 108.256V103.744L9.74692 100.556H14.2604L17.4509 103.744V108.256Z" fill="black"/>
<path d="M12.0038 109.889C12.4335 109.889 12.782 109.541 12.782 109.111C12.782 108.682 12.4335 108.333 12.0038 108.333C11.574 108.333 11.2256 108.682 11.2256 109.111C11.2256 109.541 11.574 109.889 12.0038 109.889Z" fill="black"/>
<path d="M12.0038 102.113C11.5758 102.113 11.2256 102.463 11.2256 102.89V106.779C11.2256 107.207 11.5758 107.557 12.0038 107.557C12.4318 107.557 12.782 107.207 12.782 106.779V102.89C12.782 102.463 12.4318 102.113 12.0038 102.113Z" fill="black"/>
<rect y="141" width="24" height="24" rx="5" fill="#DDE1E7" fill-opacity="0.2"/>
<path d="M18.7816 149.873L15.1397 146.233C14.9919 146.086 14.7895 146 14.5872 146H9.42008C9.21775 146 9.01542 146.086 8.87535 146.226L5.22567 149.873C5.0856 150.013 5 150.216 5 150.418V155.574C5 155.784 5.0856 155.979 5.22567 156.127L8.86757 159.767C9.01542 159.914 9.21775 160 9.42008 160H14.5794C14.7895 160 14.9841 159.914 15.1319 159.774L18.7738 156.134C18.8463 156.062 18.9036 155.976 18.9424 155.881C18.9811 155.786 19.0005 155.685 18.9995 155.582V150.418C19.0073 150.216 18.9217 150.013 18.7816 149.873ZM17.4509 155.256L14.2604 158.444H9.74692L6.55637 155.256V150.744L9.74692 147.556H14.2604L17.4509 150.744V155.256Z" fill="black"/>
<path d="M12.0038 156.889C12.4335 156.889 12.782 156.541 12.782 156.111C12.782 155.682 12.4335 155.333 12.0038 155.333C11.574 155.333 11.2256 155.682 11.2256 156.111C11.2256 156.541 11.574 156.889 12.0038 156.889Z" fill="black"/>
<path d="M12.0038 149.113C11.5758 149.113 11.2256 149.463 11.2256 149.89V153.779C11.2256 154.207 11.5758 154.557 12.0038 154.557C12.4318 154.557 12.782 154.207 12.782 153.779V149.89C12.782 149.463 12.4318 149.113 12.0038 149.113Z" fill="black"/>
</svg>
