<svg width="24" height="118" viewBox="0 0 24 118" fill="none" xmlns="http://www.w3.org/2000/svg">
<rect width="24" height="24" rx="5" fill="#DDE1E7" fill-opacity="0.2"/>
<path d="M18.7682 6.962L17.0116 5.22213C16.8606 5.07954 16.66 5 16.4513 5C16.2427 5 16.0421 5.07954 15.8911 5.22213L14.3291 6.7739H5.94953C5.6977 6.7739 5.45618 6.87299 5.27811 7.04936C5.10004 7.22573 5 7.46494 5 7.71437V18.0595C5 18.309 5.10004 18.5482 5.27811 18.7245C5.45618 18.9009 5.6977 19 5.94953 19H16.3944C16.6462 19 16.8877 18.9009 17.0658 18.7245C17.2439 18.5482 17.3439 18.309 17.3439 18.0595V9.48245L18.7682 8.07175C18.9166 7.92451 19 7.72495 19 7.51687C19 7.3088 18.9166 7.10924 18.7682 6.962ZM12.0408 13.4183L10.0515 13.8556L10.5263 11.9042L15.0603 7.40402L16.5938 8.92287L12.0408 13.4183ZM17.1065 8.38681L15.573 6.86795L16.4513 5.99802L17.9848 7.51687L17.1065 8.38681Z" fill="black"/>
<rect y="47" width="24" height="24" rx="5" fill="#DDE1E7" fill-opacity="0.2"/>
<path d="M5.90825 52.1669C5.86023 52.1154 5.80232 52.0741 5.73798 52.0454C5.67364 52.0167 5.60419 52.0013 5.53376 52.0001C5.46334 51.9988 5.39338 52.0118 5.32807 52.0382C5.26276 52.0645 5.20343 52.1038 5.15363 52.1536C5.10382 52.2034 5.06455 52.2627 5.03817 52.328C5.01179 52.3933 4.99884 52.4633 5.00008 52.5337C5.00132 52.6041 5.01674 52.6736 5.04541 52.7379C5.07407 52.8022 5.11541 52.8601 5.16694 52.9081L5.65788 53.399C5.24378 53.823 5.0123 54.3923 5.01308 54.985V60.9287C5.01308 61.5315 5.25255 62.1095 5.67879 62.5357C6.10504 62.9619 6.68315 63.2014 7.28596 63.2014H7.81047V65.1243C7.81047 65.8446 8.6329 66.2558 9.20916 65.8236L12.7059 63.2014H15.4606L18.1041 65.8446C18.203 65.9402 18.3355 65.9931 18.473 65.992C18.6105 65.9908 18.7421 65.9357 18.8394 65.8386C18.9367 65.7414 18.9919 65.6098 18.9932 65.4723C18.9944 65.3348 18.9416 65.2023 18.8461 65.1034L5.90825 52.1669ZM19 60.9287C19.0002 61.2958 18.9113 61.6574 18.741 61.9826C18.5707 62.3078 18.3241 62.5868 18.0223 62.7958L7.93775 52.7123H16.7271C17.0256 52.7123 17.3212 52.7711 17.5969 52.8853C17.8727 52.9996 18.1232 53.167 18.3343 53.378C18.5453 53.589 18.7128 53.8395 18.827 54.1153C18.9412 54.391 19 54.6865 19 54.985V60.9287Z" fill="black"/>
<rect y="94" width="24" height="24" rx="12" fill="#FBFBFF"/>
<path d="M10.6538 101.25V101.5H13.3462V101.25C13.3462 100.918 13.2043 100.601 12.9519 100.366C12.6994 100.132 12.357 100 12 100C11.643 100 11.3006 100.132 11.0481 100.366C10.7957 100.601 10.6538 100.918 10.6538 101.25ZM9.57692 101.5V101.25C9.57692 100.653 9.83221 100.081 10.2866 99.659C10.741 99.2371 11.3574 99 12 99C12.6426 99 13.259 99.2371 13.7134 99.659C14.1678 100.081 14.4231 100.653 14.4231 101.25V101.5H18.4615C18.6043 101.5 18.7413 101.553 18.8423 101.646C18.9433 101.74 19 101.867 19 102C19 102.133 18.9433 102.26 18.8423 102.354C18.7413 102.447 18.6043 102.5 18.4615 102.5H17.6495L16.6308 110.784C16.5556 111.394 16.2413 111.957 15.7478 112.366C15.2542 112.775 14.6159 113 13.9546 113H10.0454C9.38408 113 8.74579 112.775 8.25223 112.366C7.75866 111.957 7.44436 111.394 7.36923 110.784L6.35046 102.5H5.53846C5.39565 102.5 5.25869 102.447 5.15771 102.354C5.05673 102.26 5 102.133 5 102C5 101.867 5.05673 101.74 5.15771 101.646C5.25869 101.553 5.39565 101.5 5.53846 101.5H9.57692ZM10.9231 104.75C10.9231 104.617 10.8663 104.49 10.7654 104.396C10.6644 104.303 10.5274 104.25 10.3846 104.25C10.2418 104.25 10.1048 104.303 10.0039 104.396C9.90288 104.49 9.84615 104.617 9.84615 104.75V109.75C9.84615 109.883 9.90288 110.01 10.0039 110.104C10.1048 110.197 10.2418 110.25 10.3846 110.25C10.5274 110.25 10.6644 110.197 10.7654 110.104C10.8663 110.01 10.9231 109.883 10.9231 109.75V104.75ZM13.6154 104.25C13.4726 104.25 13.3356 104.303 13.2346 104.396C13.1337 104.49 13.0769 104.617 13.0769 104.75V109.75C13.0769 109.883 13.1337 110.01 13.2346 110.104C13.3356 110.197 13.4726 110.25 13.6154 110.25C13.7582 110.25 13.8952 110.197 13.9961 110.104C14.0971 110.01 14.1538 109.883 14.1538 109.75V104.75C14.1538 104.617 14.0971 104.49 13.9961 104.396C13.8952 104.303 13.7582 104.25 13.6154 104.25Z" fill="black"/>
</svg>
