<svg width="34" height="34" viewBox="0 0 34 34" fill="none" xmlns="http://www.w3.org/2000/svg">
<rect width="34" height="34" rx="10" fill="#FBFBFF"/>
<path d="M18.5999 16.9997C18.5999 16.1161 17.8836 15.3997 16.9999 15.3997C16.1162 15.3997 15.3999 16.1161 15.3999 16.9997C15.3999 17.8834 16.1162 18.5997 16.9999 18.5997C17.8836 18.5997 18.5999 17.8834 18.5999 16.9997Z" fill="#030F36"/>
<path d="M18.5999 22.5997C18.5999 21.7161 17.8836 20.9997 16.9999 20.9997C16.1162 20.9997 15.3999 21.7161 15.3999 22.5997C15.3999 23.4834 16.1162 24.1997 16.9999 24.1997C17.8836 24.1997 18.5999 23.4834 18.5999 22.5997Z" fill="#030F36"/>
<path d="M18.5999 11.3998C18.5999 10.5161 17.8836 9.79976 16.9999 9.79976C16.1162 9.79976 15.3999 10.5161 15.3999 11.3998C15.3999 12.2834 16.1162 12.9998 16.9999 12.9998C17.8836 12.9998 18.5999 12.2834 18.5999 11.3998Z" fill="#030F36"/>
</svg>
