<svg width="32" height="32" viewBox="0 0 32 32" fill="none" xmlns="http://www.w3.org/2000/svg">
<g clip-path="url(#clip0_9350_52316)">
<path d="M32 16C32 20.2435 30.3143 24.3131 27.3137 27.3137C24.3131 30.3143 20.2435 32 16 32C11.7565 32 7.68687 30.3143 4.68629 27.3137C1.68571 24.3131 0 20.2435 0 16C0 11.7565 1.68571 7.68687 4.68629 4.68629C7.68687 1.68571 11.7565 0 16 0C20.2435 0 24.3131 1.68571 27.3137 4.68629C30.3143 7.68687 32 11.7565 32 16ZM13.58 10.186C13.4305 10.0795 13.2545 10.0163 13.0714 10.0032C12.8884 9.99006 12.7052 10.0276 12.542 10.1117C12.3788 10.1957 12.242 10.3231 12.1463 10.4798C12.0507 10.6365 12.0001 10.8164 12 11V21C12.0001 21.1836 12.0507 21.3635 12.1463 21.5202C12.242 21.6769 12.3788 21.8043 12.542 21.8883C12.7052 21.9724 12.8884 22.0099 13.0714 21.9968C13.2545 21.9837 13.4305 21.9205 13.58 21.814L20.58 16.814C20.7096 16.7215 20.8153 16.5994 20.8882 16.4578C20.9611 16.3162 20.9991 16.1593 20.9991 16C20.9991 15.8407 20.9611 15.6838 20.8882 15.5422C20.8153 15.4006 20.7096 15.2785 20.58 15.186L13.58 10.186Z" fill="white"/>
</g>
<defs>
<clipPath id="clip0_9350_52316">
<rect width="32" height="32" fill="white"/>
</clipPath>
</defs>
</svg>
