<svg width="24" height="24" viewBox="0 0 24 24" fill="none" xmlns="http://www.w3.org/2000/svg">
<path d="M12.0141 4C7.58758 4 4.00088 7.325 4.00088 11.4286C4.00088 13.1296 4.62416 14.6875 5.65723 15.9357C5.19141 17.3464 4.22127 18.5386 4.20561 18.5518C3.99822 18.8018 3.94344 19.1679 4.06083 19.4804C4.18217 19.7929 4.4502 20 4.75135 20C6.67661 20 8.16673 19.0804 9.10587 18.3482C9.98241 18.6714 10.9904 18.8571 12.0141 18.8571C16.4406 18.8571 20 15.5311 20 11.4286C20 7.32607 16.4406 4 12.0141 4ZM12.0172 17.1429C11.1798 17.1429 10.3543 16.9955 9.56355 16.71L8.85137 16.4555L8.24092 16.9466C7.79482 17.308 7.18031 17.7102 6.44088 17.9823C6.67176 17.5495 6.89073 17.0627 7.06323 16.5448L7.39568 15.5448L6.75018 14.7638C6.18575 14.075 5.50486 12.9357 5.50486 11.4286C5.50486 8.27679 8.42405 5.71429 12.0163 5.71429C15.6085 5.71429 18.5277 8.27679 18.5277 11.4286C18.5277 14.5804 15.6079 17.1429 12.0172 17.1429Z" fill="#75818F"/>
</svg>
