<svg width="20" height="20" viewBox="0 0 20 20" fill="none" xmlns="http://www.w3.org/2000/svg">
<g clip-path="url(#clip0_8505_52604)">
<path d="M17.8611 0C18.4284 0 18.9724 0.225355 19.3735 0.62649C19.7747 1.02762 20 1.57168 20 2.13897V4.12678C20.0003 4.78367 19.819 5.42785 19.4763 5.98824C19.1336 6.54863 18.6428 7.00343 18.0579 7.30244L12.0833 10.354C13.1341 10.8302 13.9901 11.6519 14.5088 12.6824C15.0275 13.7129 15.1776 14.89 14.934 16.0177C14.6904 17.1454 14.068 18.1557 13.1702 18.8802C12.2725 19.6048 11.1537 20 10 20C8.84635 20 7.72751 19.6048 6.82976 18.8802C5.93202 18.1557 5.30955 17.1454 5.066 16.0177C4.82245 14.89 4.97251 13.7129 5.4912 12.6824C6.00989 11.6519 6.86591 10.8302 7.91673 10.354L1.94353 7.30101C1.39874 7.02278 0.934708 6.60903 0.596076 6.09957C0.257445 5.5901 0.0556076 5.00206 0.00998142 4.39202L0 4.12678V2.13897C0 1.57168 0.225346 1.02762 0.626465 0.62649C1.02758 0.225355 1.57162 0 2.13889 0H17.8611ZM10 11.3294C9.52456 11.3294 9.05377 11.4231 8.61453 11.605C8.17528 11.787 7.77616 12.0536 7.43998 12.3898C7.10379 12.726 6.83711 13.1252 6.65517 13.5644C6.47323 14.0037 6.37958 14.4745 6.37958 14.95C6.37958 15.4254 6.47323 15.8962 6.65517 16.3355C6.83711 16.7748 7.10379 17.1739 7.43998 17.5101C7.77616 17.8463 8.17528 18.113 8.61453 18.2949C9.05377 18.4769 9.52456 18.5705 10 18.5705C10.9602 18.5705 11.8811 18.1891 12.56 17.5101C13.239 16.8311 13.6204 15.9102 13.6204 14.95C13.6204 13.9897 13.239 13.0688 12.56 12.3898C11.8811 11.7109 10.9602 11.3294 10 11.3294ZM13.7117 1.42598H6.28262V7.91846L9.67632 9.65245C9.77675 9.70377 9.88793 9.73053 10.0007 9.73053C10.1135 9.73053 10.2247 9.70377 10.3251 9.65245L13.7117 7.92132V1.42455V1.42598Z" fill="black"/>
</g>
<defs>
<clipPath id="clip0_8505_52604">
<rect width="20" height="20" fill="white"/>
</clipPath>
</defs>
</svg>
