<svg width="24" height="135" viewBox="0 0 24 135" fill="none" xmlns="http://www.w3.org/2000/svg">
<rect width="24" height="24" rx="5" fill="#DDE1E7" fill-opacity="0.2"/>
<path d="M8.43951 10.9606L6.95245 12.4479C6.34261 13.0578 6 13.8851 6 14.7477C6 15.6102 6.34261 16.4375 6.95245 17.0474C7.5623 17.6574 8.38942 18 9.25187 18C10.1143 18 10.9414 17.6574 11.5513 17.0474L13.5326 15.0647C13.9003 14.6969 14.1745 14.2462 14.332 13.7504C14.4896 13.2547 14.5259 12.7283 14.438 12.2156C14.3501 11.7029 14.1405 11.2188 13.8268 10.8039C13.5131 10.3889 13.1044 10.0553 12.6352 9.83105L12 10.4663C11.9355 10.5309 11.8795 10.6034 11.8331 10.682C12.1957 10.7863 12.5248 10.9834 12.7879 11.2538C13.051 11.5242 13.2389 11.8587 13.3332 12.224C13.4274 12.5894 13.4247 12.973 13.3253 13.337C13.2259 13.701 13.0332 14.0327 12.7663 14.2994L10.7861 16.281C10.3793 16.6878 9.82765 16.9164 9.25241 16.9164C8.67718 16.9164 8.1255 16.6878 7.71874 16.281C7.31199 15.8742 7.08348 15.3224 7.08348 14.7471C7.08348 14.1718 7.31199 13.62 7.71874 13.2132L8.57825 12.3547C8.45698 11.9002 8.41013 11.429 8.43951 10.9595V10.9606Z" fill="#030F36"/>
<path d="M10.4673 8.9342C10.0996 9.30206 9.82544 9.75278 9.6679 10.2485C9.51035 10.7443 9.47401 11.2706 9.56193 11.7833C9.64984 12.296 9.85945 12.7802 10.1732 13.1951C10.4869 13.61 10.8955 13.9436 11.3648 14.1679L12.2048 13.3267C11.8373 13.2281 11.5022 13.0345 11.2332 12.7654C10.9643 12.4962 10.7708 12.161 10.6724 11.7935C10.574 11.4259 10.5741 11.0389 10.6726 10.6713C10.7711 10.3037 10.9646 9.96859 11.2336 9.69952L13.2139 7.71792C13.6206 7.3111 14.1723 7.08256 14.7475 7.08256C15.3228 7.08256 15.8744 7.3111 16.2812 7.71792C16.688 8.12473 16.9165 8.6765 16.9165 9.25182C16.9165 9.82714 16.688 10.3789 16.2812 10.7857L15.4217 11.6443C15.5431 12.0996 15.5897 12.5711 15.5604 13.0394L17.0475 11.5521C17.6573 10.9422 17.9999 10.1149 17.9999 9.25236C17.9999 8.38978 17.6573 7.56253 17.0475 6.95259C16.4376 6.34266 15.6105 6 14.7481 6C13.8856 6 13.0585 6.34266 12.4487 6.95259L10.4673 8.9342Z" fill="#030F36"/>
<rect y="37" width="24" height="24" rx="5" fill="#DDE1E7" fill-opacity="0.2"/>
<path d="M8.76571 54.7391C8.69066 54.664 8.63796 54.5695 8.61351 54.4661C8.58905 54.3628 8.59381 54.2547 8.62723 54.1539L9.82766 50.5549C9.86019 50.4577 9.91817 50.371 9.99558 50.3038C10.073 50.2365 10.167 50.1913 10.2678 50.1727L14.8273 49.4861L10.2686 48.7987C10.1678 48.7801 10.0739 48.7349 9.99653 48.6678C9.91919 48.6006 9.86127 48.5139 9.82882 48.4168L8.62762 44.817C8.59278 44.7114 8.58951 44.5979 8.61822 44.4904C8.64692 44.383 8.70635 44.2862 8.78922 44.212C8.8721 44.1378 8.97481 44.0894 9.08478 44.0727C9.19476 44.056 9.30721 44.0718 9.40836 44.1181L19.9164 48.9665C20.0156 49.0121 20.0996 49.0853 20.1585 49.1772C20.2174 49.2692 20.2487 49.3761 20.2487 49.4853C20.2487 49.5945 20.2174 49.7014 20.1585 49.7933C20.0996 49.8853 20.0156 49.9584 19.9164 50.0041L9.40836 54.8533C9.30715 54.9 9.19448 54.9161 9.08425 54.8995C8.97401 54.8829 8.87106 54.8344 8.78809 54.7599L8.76571 54.7391Z" fill="#030F36"/>
<rect y="74" width="24" height="24" rx="5" fill="#DDE1E7" fill-opacity="0.2"/>
<path d="M15.0223 84.75C16.44 84.75 17.5938 83.7405 17.5938 82.5C17.5938 81.2595 16.44 80.25 15.0223 80.25C13.6046 80.25 12.4509 81.2595 12.4509 82.5C12.4509 82.6672 12.4757 82.8292 12.5152 82.9867L9.75518 84.4957C9.31632 84.1905 8.76861 84 8.16518 84C6.74746 84 5.59375 85.0095 5.59375 86.25C5.59375 87.4905 6.74746 88.5 8.16518 88.5C8.76861 88.5 9.31632 88.3095 9.75518 88.0042L12.5152 89.5133C12.4757 89.6707 12.4509 89.8328 12.4509 90C12.4509 91.2405 13.6046 92.25 15.0223 92.25C16.44 92.25 17.5938 91.2405 17.5938 90C17.5938 88.7595 16.44 87.75 15.0223 87.75C14.4189 87.75 13.8712 87.9405 13.4323 88.2458L10.6723 86.7368C10.7118 86.5793 10.7366 86.4173 10.7366 86.25C10.7366 86.0827 10.7118 85.9207 10.6723 85.7632L13.4323 84.2543C13.8712 84.5595 14.4189 84.75 15.0223 84.75Z" fill="#030F36"/>
<rect y="111" width="24" height="24" rx="5" fill="#DDE1E7" fill-opacity="0.2"/>
<path d="M17.8053 121.228L13.6802 117.157C13.3191 116.8 12.75 117.09 12.75 117.643V119.788C8.98526 119.837 6 120.699 6 124.777C6 126.422 6.92768 128.053 7.95312 128.905C8.27311 129.171 8.72916 128.837 8.61117 128.406C7.54842 124.522 9.11524 123.491 12.75 123.431V125.786C12.75 126.34 13.3195 126.628 13.6802 126.272L17.8053 122.201C18.0647 121.945 18.0651 121.484 17.8053 121.228Z" fill="black"/>
</svg>
