<svg width="24" height="24" viewBox="0 0 24 24" fill="none" xmlns="http://www.w3.org/2000/svg">
<g clip-path="url(#clip0_8479_56779)">
<path d="M2.75251 20.7538C2.62744 20.6286 2.53962 20.4712 2.49887 20.299C2.45812 20.1268 2.46604 19.9466 2.52174 19.7787L4.52213 13.7814C4.57634 13.6194 4.67296 13.4748 4.80194 13.3628C4.93092 13.2508 5.08756 13.1754 5.25556 13.1444L12.8534 12.0002L5.25685 10.8547C5.08896 10.8239 4.93242 10.7486 4.80353 10.6366C4.67465 10.5247 4.57814 10.3803 4.52406 10.2184L2.52239 4.21977C2.46433 4.04374 2.45889 3.8546 2.50672 3.67553C2.55456 3.49645 2.65359 3.33522 2.79169 3.21159C2.92978 3.08795 3.10095 3.00729 3.28421 2.97948C3.46746 2.95167 3.65485 2.97792 3.82341 3.05502L21.3339 11.1343C21.4992 11.2104 21.6392 11.3323 21.7373 11.4856C21.8355 11.6388 21.8876 11.8169 21.8876 11.9989C21.8876 12.1809 21.8355 12.359 21.7373 12.5123C21.6392 12.6655 21.4992 12.7874 21.3339 12.8635L3.82341 20.9441C3.65476 21.022 3.467 21.0487 3.28331 21.0211C3.09962 20.9934 2.92805 20.9126 2.78979 20.7885L2.75251 20.7538Z" fill="#3F61DB"/>
</g>
<defs>
<clipPath id="clip0_8479_56779">
<rect width="24" height="24" fill="white"/>
</clipPath>
</defs>
</svg>
